<?xml version="1.0" encoding="utf-8" ?>
<svg xmlns="http://www.w3.org/2000/svg" xmlns:xlink="http://www.w3.org/1999/xlink" width="1266" height="840">
	<path transform="scale(6.26733 6.26866)" d="M140.203 91.114C140.741 91.0118 141.14 91.0112 141.675 91.1252C141.767 91.2388 141.863 91.3705 141.91 91.511C142.193 92.3563 142.311 130.712 141.724 132.028C140.762 132.634 139.64 132.815 138.526 132.929C134.821 133.31 130.853 133.046 127.121 133.047Q116.363 133.09 105.605 132.961C105.259 132.781 104.894 132.58 104.62 132.298C103.595 131.243 104.034 128.238 104.037 126.819C105.647 124.276 108.574 121.902 110.716 119.764C115.407 115.083 120.016 110.209 124.884 105.719C126.276 104.436 127.867 103.393 129.281 102.135C131.808 99.8862 134.158 97.3618 136.549 94.9668C137.752 93.7616 139.232 92.5082 140.203 91.114Z"/>
	<path fill="#FDD244" transform="scale(6.26733 6.26866)" d="M139.129 95.1022C139.595 95.1742 139.681 95.1223 139.98 95.5075L140.031 118.557C140.037 122.253 140.336 126.243 139.97 129.905C139.929 130.311 139.79 130.664 139.567 131.005L106.315 130.976C106.293 130.959 106.269 130.945 106.25 130.925C105.711 130.367 105.974 128.383 106.001 127.617C108.391 124.857 111.132 122.319 113.715 119.733C117.443 115.999 121.136 112.212 124.93 108.547C127.26 106.296 138.4 97.2563 139.129 95.1022Z"/>
	<path transform="scale(6.26733 6.26866)" d="M111.514 65.8648C111.796 65.8967 112.073 65.9557 112.336 66.063C113.43 66.5077 136.587 89.686 136.93 90.4761C134.76 93.1821 131.898 95.6407 129.427 98.097L115.822 111.718C111.669 115.871 107.133 119.936 103.282 124.356C102.862 123.141 102.383 121.918 102.199 120.641C101.767 117.649 101.534 106.889 102.406 104.255C103.187 101.896 105.159 99.8479 105.698 97.4604C106.409 94.3054 106.679 90.9653 107.237 87.7702C107.96 83.6333 108.6 79.5262 109.254 75.3834C109.424 74.3083 109.863 73.279 109.972 72.1972C110.075 71.1817 109.953 70.1335 109.994 69.1121C110.055 67.5668 110.382 66.9155 111.514 65.8648Z"/>
	<path fill="#FDD244" transform="scale(6.26733 6.26866)" d="M112.033 68.4675C117.239 73.9237 122.683 79.1741 128.028 84.4941C129.768 86.2258 132.66 88.5469 134 90.4988C131.438 93.4528 128.376 96.1501 125.602 98.9159C118.403 106.094 110.984 113.163 104.032 120.574C104.003 117.197 103.746 113.632 104.1 110.273C103.517 104.892 106.472 102.713 107.667 98.0184C109.42 91.136 110.115 83.8874 111.191 76.8747C111.247 75.7357 111.589 74.7467 111.765 73.635C112.04 71.9074 112.063 70.2125 112.033 68.4675Z"/>
	<path fill="#DC1313" transform="scale(6.26733 6.26866)" d="M111.191 76.8747C114.206 79.1192 121.763 86.97 124.417 90.026Q118.114 96.4896 111.683 102.826C109.205 105.296 106.767 108.016 104.1 110.273C103.517 104.892 106.472 102.713 107.667 98.0184C109.42 91.136 110.115 83.8874 111.191 76.8747Z"/>
	<path transform="scale(6.26733 6.26866)" d="M101.501 56.9974C101.889 56.974 102.281 56.9474 102.67 56.9513C103.284 56.9574 103.561 57.0182 103.978 57.4415C104.188 59.8751 104.051 62.4121 104.05 64.8572L104.034 78.4095C104.027 83.1791 104.513 91.3745 103.813 95.7888C103.113 100.198 100.385 104.211 100.037 108.714C99.8381 111.286 100.716 113.562 100.966 116.079C101.211 118.546 101.046 121.138 101.011 123.617C97.1193 118.973 91.2307 113.773 86.8045 109.32L75.0835 97.6164C73.2778 95.8123 71.028 93.9503 69.5211 91.91C69.2009 91.4766 69.0592 91.0583 69.06 90.5169C69.06 90.4786 69.0616 90.4403 69.061 90.402C69.06 90.3362 69.0538 90.2706 69.0543 90.2048C69.0586 89.5618 69.7011 88.8774 70.1012 88.4218C73.5727 84.4686 77.627 80.8218 81.3652 77.1068L101.501 56.9974Z"/>
	<path fill="#FDD244" transform="scale(6.26733 6.26866)" d="M70.8573 90.455C74.5779 87.2774 77.9798 83.5008 81.439 80.0395Q91.6537 69.7455 101.986 59.5695C102.01 62.4749 102.422 66.0542 101.849 68.8536C102.385 73.2802 102.244 92.5519 101.356 96.5317C100.484 100.436 98.2258 104.144 97.8565 108.132C98.117 109.348 98.0275 110.875 98.1458 112.135C98.3464 114.272 98.7177 116.376 99.0926 118.488C97.3478 115.911 93.7161 113.222 91.4253 110.948C84.5648 104.138 77.8806 97.0919 70.8573 90.455Z"/>
	<path fill="#1164BE" transform="scale(6.26733 6.26866)" d="M101.849 68.8536C102.385 73.2802 102.244 92.5519 101.356 96.5317C100.484 100.436 98.2258 104.144 97.8565 108.132C95.8691 106.654 94.0963 104.552 92.3331 102.788C88.2075 98.6613 84.1651 94.4008 79.824 90.4999C82.0208 88.8444 84.0047 86.5513 85.9485 84.6035C91.1744 79.3669 96.2733 73.6916 101.849 68.8536Z"/>
	<path transform="scale(6.26733 6.26866)" d="M103.282 4.90828C103.654 4.96357 104.034 5.0688 104.366 5.25166C107.019 6.71628 115.733 16.1595 118.405 18.8301C126.009 26.4321 133.957 33.8816 141.271 41.7568C141.496 41.9995 141.614 42.2522 141.711 42.5673C142.077 43.5105 142.038 44.4832 142.048 45.476C142.094 50.0291 142.35 88.171 141.934 89.3764C141.889 89.5054 141.475 89.845 141.359 89.9636C141.054 89.9911 140.832 89.9081 140.575 89.7537C137.851 88.1169 131.869 81.3453 129.307 78.7764C123.68 73.1359 117.722 67.6556 112.349 61.7826C111.687 61.0585 110.658 60.0091 110.413 59.0603C109.808 56.7168 110.229 54.3611 109.862 52.0081C108.649 44.2202 107.266 36.4039 106.168 28.6001C105.7 25.2798 105.509 21.9127 105.045 18.5815C104.596 15.3581 104.16 12.1008 103.664 8.88516C103.521 7.95533 103.156 7.06001 103.075 6.12238C103.04 5.71296 103.159 5.2949 103.282 4.90828Z"/>
	<path fill="#FDD244" transform="scale(6.26733 6.26866)" d="M105.906 9.85871C105.944 9.87464 105.982 9.88988 106.019 9.90648C107.422 10.5301 139.283 42.462 139.647 43.4417C139.67 43.4831 139.692 43.5245 139.712 43.5674C140.293 44.8495 140.36 83.9491 139.689 85.8993C139.548 85.8698 139.404 85.8286 139.288 85.7407C136.281 83.465 133.328 79.8124 130.606 77.0855C125.53 72.0012 120.194 67.0814 115.299 61.8316C114.426 60.8948 113.042 59.5165 112.549 58.352C111.728 56.4108 111.68 49.5061 111.356 46.9962C110.586 41.0258 109.4 35.1222 108.567 29.164C107.664 22.7094 107.133 16.2757 105.906 9.85871Z"/>
	<path transform="scale(6.26733 6.26866)" d="M100.606 4.8541C101.13 4.9229 101.382 5.02005 101.774 5.37846C102.031 5.99679 103.019 14.6188 103.258 16.1834L107.305 43.4367C107.809 46.8218 108.648 50.2072 109.014 53.6037C109.217 55.4837 109.055 57.5034 108.998 59.3948C106.904 57.2035 104.57 55.2572 102.528 53.018C100.526 55.0457 98.5505 57.1769 96.3996 59.0453C94.7824 60.45 92.9795 61.6335 91.4227 63.1102C84.57 69.6102 78.0047 76.5166 71.3152 83.1926C69.2563 85.2906 67.0992 87.8746 64.6899 89.5481C64.208 89.8828 64.0415 90.0312 63.4556 89.9254C63.1927 89.6121 63.1266 89.3529 63.0938 88.9495C62.6821 83.8918 63.0121 78.5668 63.0142 73.4717L63.0413 42.7746C65.7174 39.2593 69.2999 36.1245 72.4207 32.9992L91.693 13.7221C94.6124 10.8069 97.9261 7.96795 100.606 4.8541Z"/>
	<path fill="#FDD244" transform="scale(6.26733 6.26866)" d="M99.5492 8.94268C99.8834 9.12808 99.8659 9.11763 99.9252 9.49139Q101.911 21.8826 103.685 34.306C104.618 40.9115 105.051 48.3968 107.366 54.6746C106.073 53.4037 104.284 51.1497 102.45 50.8588C100.432 51.3918 96.792 55.7692 95.195 57.2549C93.0208 59.2775 90.6263 61.0568 88.4661 63.0968C82.5027 68.7282 76.8081 74.7141 71.0122 80.5216Q68.003 83.5244 65.0274 86.5602L64.996 43.6116C68.899 39.2207 73.2787 35.1532 77.4369 31.001L99.5492 8.94268Z"/>
	<path transform="scale(6.26733 6.26866)" d="M192.23 36.1238C192.728 36.0318 193.121 36.0138 193.622 36.0906L193.909 36.4962C194.264 40.2358 194.031 44.133 194.026 47.8942L194.042 67.3389L194.044 100.151C194.043 105.948 194.178 111.783 194.004 117.577C193.984 118.24 193.967 118.777 193.612 119.366C193.612 119.48 193.603 119.601 193.56 119.708C193.066 120.93 181.405 132.415 179.97 133.005C167.472 132.912 154.961 133.231 142.466 132.938C142.549 132.814 142.621 132.685 142.674 132.545C143.104 131.422 143.283 130.161 142.767 129.038C144.035 127.334 144.423 123.296 144.952 121.191C145.373 119.519 149.471 103.764 149.695 103.528C150.412 102.774 153.594 102.979 154.643 102.948C154.653 102.931 154.664 102.914 154.674 102.897C155.513 101.494 154.991 98.7203 154.984 97.1158C154.971 94.1983 155.522 90.7583 154.848 87.9234C154.152 84.9946 149.706 83.9084 149.075 80.9855C148.934 80.3335 149.067 79.765 149.462 79.2327C152.258 75.4591 157.881 70.5441 161.332 67.0977L185.946 42.431C187.887 40.4878 190.698 38.4304 192.199 36.1723L192.23 36.1238Z"/>
	<path fill="#FDD244" transform="scale(6.26733 6.26866)" d="M191.124 40.1228L191.716 40.2287C191.778 40.3284 191.755 40.2876 191.82 40.4128C192.252 41.2564 192.211 117.128 191.756 118.489C191.752 118.527 191.749 118.566 191.742 118.604C191.615 119.354 180.407 130.245 179.294 130.993C167.686 131.146 156.046 131.032 144.437 130.945C144.625 130.768 144.789 130.582 144.927 130.362C145.524 129.414 145.934 127.72 145.652 126.629C145.703 126.562 145.752 126.496 145.797 126.424C146.617 125.131 146.867 122.589 147.292 121.036C148.355 117.16 151.744 108.63 150.908 104.961L156.587 105.001C156.704 104.826 156.799 104.651 156.868 104.452C157.318 103.161 157.204 87.6836 156.663 86.5553C156.653 86.5232 156.645 86.4909 156.635 86.459C156.184 85.0306 151.881 81.1684 150.491 80.458Q150.561 80.4307 150.629 80.4005C152.071 79.7519 190.909 40.7157 191.124 40.1228Z"/>
	<path transform="scale(6.26733 6.26866)" d="M11.2318 36.8961C11.7998 36.9024 12.4558 36.8867 13.0065 37.0316C13.6942 37.2125 14.2915 37.809 14.799 38.2782C22.7304 45.6123 30.1917 53.623 37.8439 61.258C40.8413 64.2488 54.5621 77.1956 55.9831 79.8207C56.11 82.6834 51.7088 85.4791 50.0807 87.686C49.8027 92.7407 50.1041 97.8915 49.99 102.963C51.343 102.978 53.4234 102.71 54.6302 103.358C55.2916 103.713 55.5702 104.165 55.8161 104.849C56.395 106.459 56.6384 108.31 57.0696 109.976C58.0343 113.702 59.0767 117.429 60.0876 121.145C60.5285 122.765 61.4296 124.241 61.8519 125.791C62.2097 127.104 61.9574 128.524 62.3765 129.865L62.7391 129.98C63.3407 129.292 63.0381 94.5881 62.9953 90.5337C64.2283 91.1032 65.5748 91.6503 66.6828 92.441C69.3551 94.3477 71.6328 96.9449 73.9403 99.2723L83.4876 108.839C84.9025 110.607 86.8688 112.239 88.479 113.848C92.9676 118.334 97.6422 122.736 101.921 127.42C102.004 128.703 102.826 129.81 102.826 131.046C102.827 131.556 102.652 132.028 102.278 132.382C101.597 133.026 100.338 133.005 99.4547 133.041C95.6567 133.195 91.8015 133.063 87.9984 133.059C81.7145 133.053 75.4252 133.089 69.1419 133.008C67.3305 132.984 65.5168 132.78 63.7078 132.786L36.4695 133.035C32.4932 133.037 28.4779 133.144 24.5079 132.918C22.6035 131.452 20.8939 129.421 19.1885 127.72C16.4861 125.024 13.6117 122.402 11.1025 119.53C10.7096 101.642 11.0432 83.6901 11.0336 65.7953L11.0144 47.6838C11.0113 44.1488 10.7869 40.404 11.2318 36.8961Z"/>
	<path fill="#FDD244" transform="scale(6.26733 6.26866)" d="M65.0162 93.8308C65.2343 93.922 65.4521 94.0271 65.6341 94.1802C67.8407 96.0357 69.8522 98.3132 71.8912 100.357L84.1119 112.608L94.4223 122.893C96.1523 124.622 98.2425 126.415 99.7047 128.37C100.137 128.948 100.148 130.2 100.217 130.919C88.5464 131.36 76.7092 130.996 65.0237 130.989L65.0162 93.8308Z"/>
	<path fill="#FDD244" transform="scale(6.26733 6.26866)" d="M13.0198 39.8242C14.9508 40.743 21.7739 48.2039 23.7625 50.1967L42.6453 69.1228C46.4609 72.944 50.2173 76.8645 54.1937 80.5183C52.4691 82.1583 50.3173 84.6849 48.0327 85.4022C47.9231 91.9354 48.007 98.484 48.002 105.019L53.8957 104.952C54.3315 111.206 57.337 119.763 59.6686 125.664C60.0307 127.442 60.0629 129.173 60.084 130.982L25.5534 131.002C21.227 127.018 17.1985 122.675 13.0157 118.538C12.8602 109.42 13.0009 100.279 13.0007 91.1578L13.0198 39.8242Z"/>
</svg>
