<?xml version="1.0" encoding="UTF-8" standalone="no"?>
<!-- Created with Inkscape (http://www.inkscape.org/) -->

<svg
   width="122.25192mm"
   height="216.04419mm"
   viewBox="0 0 122.25192 216.04419"
   version="1.1"
   id="svg1"
   xml:space="preserve"
   inkscape:version="1.3.1 (9b9bdc1480, 2023-11-25, custom)"
   sodipodi:docname="gwent_logo_svg.svg"
   xmlns:inkscape="http://www.inkscape.org/namespaces/inkscape"
   xmlns:sodipodi="http://sodipodi.sourceforge.net/DTD/sodipodi-0.dtd"
   xmlns="http://www.w3.org/2000/svg"
   xmlns:svg="http://www.w3.org/2000/svg"><sodipodi:namedview
     id="namedview1"
     pagecolor="#ffffff"
     bordercolor="#000000"
     borderopacity="0.25"
     inkscape:showpageshadow="2"
     inkscape:pageopacity="0.0"
     inkscape:pagecheckerboard="0"
     inkscape:deskcolor="#d1d1d1"
     inkscape:document-units="mm"
     inkscape:zoom="0.5"
     inkscape:cx="-16"
     inkscape:cy="220"
     inkscape:window-width="1660"
     inkscape:window-height="749"
     inkscape:window-x="215"
     inkscape:window-y="78"
     inkscape:window-maximized="0"
     inkscape:current-layer="layer1" /><defs
     id="defs1" /><g
     inkscape:label="Warstwa 1"
     inkscape:groupmode="layer"
     id="layer1"
     transform="translate(-43.2789,-44.408961)"><g
       id="g39"
       transform="translate(2.5657592,1.907496)"><path
         style="fill:#0885fb"
         d="m 152.63667,256.9793 v -1.56634 l 0.44691,-0.004 c 5.9994,-0.0549 6.48512,-0.23017 6.63623,-2.3949 0.0754,-1.08062 0.0754,-203.900303 0,-204.980916 -0.15111,-2.164731 -0.63683,-2.340021 -6.63623,-2.394904 l -0.44691,-0.0041 v -1.566338 -1.566337 l 2.85393,0.04335 c 1.96241,0.02981 2.86278,0.06992 2.88229,0.128431 0.0156,0.0468 0.11108,0.08509 0.21218,0.08509 2.06041,0 4.09265,2.360772 4.31558,5.013242 0.0769,0.914546 0.0769,204.589492 0,205.504042 -0.2213,2.63303 -2.2499,5.00196 -4.29214,5.0122 -0.11399,5.7e-4 -0.22003,0.0393 -0.23562,0.0861 -0.0195,0.0585 -0.91988,0.0986 -2.88229,0.12843 l -2.85393,0.0433 z m -15.15631,-23.02163 c -1.38933,-0.0292 -2.60475,-0.0579 -2.70093,-0.0638 -0.17465,-0.0106 -0.17489,-0.0126 -0.17489,-1.44381 v -1.43314 l 0.33033,-0.0401 c 0.18169,-0.0221 1.3239,-0.0605 2.53826,-0.0854 1.21436,-0.0249 2.23741,-0.0636 2.27345,-0.0858 0.036,-0.0223 0.0655,-9.69566 0.0655,-21.49641 V 187.8533 l -1.52507,-2.32325 c -1.74996,-2.66585 -1.54429,-2.5231 -2.47775,-1.71974 -0.38474,0.33112 -0.8132,0.68292 -0.95213,0.7818 l -0.25261,0.17976 v -1.90811 -1.90812 l 1.06872,-1.04286 c 1.19425,-1.16536 1.56045,-1.48657 1.6232,-1.42382 0.0235,0.0235 1.2987,1.90556 2.83379,4.18237 l 2.79109,4.13966 -0.0196,23.59444 -0.0196,23.59444 -1.4379,0.005 c -0.79085,0.003 -2.57463,-0.0184 -3.96396,-0.0476 z m -5.90708,-64.04332 v -2.56639 l 0.22882,-0.42879 c 5.31279,-9.95594 5.2965,-23.76982 -0.0388,-32.88713 l -0.19003,-0.32474 0.003,-2.58994 0.003,-2.58993 0.27819,0.3109 c 6.82743,7.63029 9.05725,22.67802 5.04023,34.01362 -1.20691,3.4058 -4.62482,9.62878 -5.2885,9.62878 -0.02,0 -0.0364,-1.15487 -0.0364,-2.56638 z m 4.19713,-48.56621 -1.28245,-1.23033 0.0221,-1.91941 0.0221,-1.91941 0.21108,0.15101 c 0.1161,0.0831 0.53756,0.43434 0.93658,0.78065 0.96387,0.8365 0.75665,0.97602 2.48065,-1.67019 l 1.4962,-2.29655 V 91.762934 c 0,-11.90058 -0.0298,-21.499396 -0.0668,-21.522276 -0.0368,-0.02271 -1.04231,-0.06136 -2.23458,-0.08588 -1.19227,-0.02452 -2.31641,-0.06261 -2.49809,-0.08464 l -0.33033,-0.04006 V 68.60476 67.179443 l 0.95213,-0.04593 c 0.52367,-0.02526 2.38614,-0.05501 4.13884,-0.06612 l 3.18671,-0.02019 0.0196,23.556773 0.0196,23.556774 -2.49668,3.72458 c -2.75864,4.11539 -3.15989,4.69686 -3.23969,4.69464 -0.0299,-8.3e-4 -0.63147,-0.55516 -1.33683,-1.23184 z"
         id="path45" /><path
         style="fill:#5b55ce"
         d="m 111.05397,258.44422 c 0,-0.0427 0.035,-0.0777 0.0777,-0.0777 0.0491,0 0.0777,-0.5413 0.0777,-1.46846 0,-1.92736 -3.03875,-1.71708 24.59986,-1.70228 18.82138,0.0101 19.93825,0.017 10.49283,0.0647 -5.81381,0.0294 -11.33329,0.0796 -12.26552,0.11171 l -1.69496,0.0583 0.0239,1.54583 0.0239,1.54582 -10.66771,-9e-5 c -7.05993,-5e-5 -10.66771,-0.0264 -10.66771,-0.0778 z m 48.61666,-107.92071 c 0,-55.444897 0.009,-78.138539 0.0196,-50.43032 0.0108,27.70823 0.0108,73.07223 0,100.80891 -0.0108,27.73667 -0.0196,5.06631 -0.0196,-50.37859 z m -51.66571,83.5128 c -1.0945,-0.0832 -0.99263,0.083 -0.99263,-1.61891 v -1.47071 l 0.29147,-0.0578 c 0.1603,-0.0318 6.06252,-0.0651 13.11603,-0.0741 9.56425,-0.0121 11.32949,-0.002 6.94362,0.0392 -3.23453,0.0305 -5.97141,0.0782 -6.08196,0.10593 l -0.201,0.0504 v 1.42945 1.42945 l 0.67761,0.0564 c 0.37269,0.031 4.17634,0.0806 8.45256,0.11009 6.89828,0.0476 6.12733,0.0539 -6.83729,0.0558 -8.03673,0.001 -14.95252,-0.0237 -15.36841,-0.0553 z m -0.99263,-39.0365 v -1.49784 l 0.68009,-0.1753 c 0.37405,-0.0964 1.50203,-0.31295 2.50662,-0.48118 6.73338,-1.12757 14.36179,-4.3404 19.60605,-8.25741 0.67329,-0.50289 1.22416,-0.89685 1.22416,-0.87548 0,0.34254 -5.27093,3.69575 -8.00442,5.09218 l -1.90547,0.97343 -0.0211,1.58089 -0.0211,1.58089 0.21538,-0.0535 c 1.45561,-0.36155 7.10836,-3.29942 9.46461,-4.91899 0.25709,-0.17671 0.3097,-0.19817 0.15545,-0.0634 -1.49875,1.30937 -7.68441,4.49118 -11.32967,5.82782 -4.05282,1.48608 -9.60558,2.76574 -12.00126,2.76574 h -0.5694 z m 24.17237,-7.31439 c 0,-0.0161 0.0612,-0.0773 0.13602,-0.13602 0.12327,-0.0967 0.12602,-0.0939 0.0293,0.0294 -0.10153,0.12947 -0.16536,0.17064 -0.16536,0.10667 z m 0.3109,-0.23317 c 0,-0.0161 0.0612,-0.0773 0.13602,-0.13602 0.12327,-0.0967 0.12602,-0.0939 0.0293,0.0293 -0.10154,0.12947 -0.16536,0.17065 -0.16536,0.10668 z m 0.3109,-0.23318 c 0,-0.0161 0.0612,-0.0773 0.13602,-0.13601 0.12327,-0.0967 0.12602,-0.0939 0.0293,0.0293 -0.10154,0.12947 -0.16536,0.17064 -0.16536,0.10667 z m -24.42498,-0.091 c -0.16886,-0.17683 -0.0622,-2.91255 0.11659,-2.99131 0.19711,-0.0868 0.73318,-0.23201 2.71674,-0.7358 7.02545,-1.78432 12.87553,-5.52672 18.04393,-11.54302 0.1648,-0.19184 0.22948,-0.24388 0.14373,-0.11563 -1.1481,1.71698 -5.47538,5.69074 -8.24553,7.57192 l -0.47553,0.32292 v 1.62933 c 0,1.25754 0.0223,1.62932 0.0978,1.62932 0.63003,0 4.82306,-2.85368 6.80887,-4.63395 0.68992,-0.61852 1.2544,-1.10714 1.2544,-1.08584 0,0.78657 -6.9085,5.5494 -10.37292,7.15125 -3.52334,1.6291 -9.5968,3.3153 -10.0881,2.80081 z m 24.73588,-0.14221 c 0,-0.0161 0.0612,-0.0773 0.13601,-0.13602 0.12328,-0.0967 0.12603,-0.0939 0.0294,0.0293 -0.10154,0.12947 -0.16536,0.17064 -0.16536,0.10667 z m 0.31089,-0.23317 c 0,-0.0161 0.0612,-0.0774 0.13602,-0.13602 0.12328,-0.0967 0.12603,-0.0939 0.0293,0.0293 -0.10154,0.12947 -0.16537,0.17065 -0.16537,0.10668 z m 0.3109,-0.23318 c 0,-0.0161 0.0612,-0.0773 0.13602,-0.13602 0.12328,-0.0967 0.12603,-0.0939 0.0293,0.0293 -0.10154,0.12947 -0.16537,0.17064 -0.16537,0.10667 z m 0.3109,-0.23317 c 0,-0.0161 0.0612,-0.0773 0.13602,-0.13602 0.12328,-0.0967 0.12602,-0.0939 0.0293,0.0293 -0.10154,0.12947 -0.16537,0.17065 -0.16537,0.10668 z m 1.94312,-1.56401 c 0.1004,-0.10687 0.20003,-0.19431 0.22141,-0.19431 0.0214,0 -0.0433,0.0874 -0.14369,0.19431 -0.1004,0.10687 -0.20003,0.19431 -0.22141,0.19431 -0.0214,0 0.0433,-0.0874 0.14369,-0.19431 z m 0.6218,-0.52953 c 0,-0.0134 0.11367,-0.12705 0.2526,-0.25261 l 0.25261,-0.22828 -0.22829,0.2526 c -0.21279,0.23546 -0.27692,0.28833 -0.27692,0.22829 z m -4.50804,-0.5491 c 0,-0.0161 0.0612,-0.0773 0.13602,-0.13602 0.12328,-0.0967 0.12603,-0.0939 0.0293,0.0293 -0.10154,0.12947 -0.16537,0.17064 -0.16537,0.10667 z m 0.3109,-0.23318 c 0,-0.0161 0.0612,-0.0773 0.13602,-0.13601 0.12328,-0.0967 0.12603,-0.0939 0.0293,0.0293 -0.10154,0.12947 -0.16537,0.17064 -0.16537,0.10667 z m 0.3109,-0.23317 c 0,-0.0161 0.0612,-0.0773 0.13602,-0.13602 0.12328,-0.0967 0.12603,-0.0939 0.0294,0.0293 -0.10154,0.12947 -0.16537,0.17064 -0.16537,0.10667 z m 0.3109,-0.23317 c 0,-0.0161 0.0612,-0.0773 0.13602,-0.13602 0.12327,-0.0967 0.12602,-0.0939 0.0293,0.0293 -0.10153,0.12947 -0.16536,0.17065 -0.16536,0.10668 z m 0.54407,-0.47587 c 0.14502,-0.14962 0.28116,-0.27203 0.30253,-0.27203 0.0214,0 -0.0798,0.12241 -0.2248,0.27203 -0.14502,0.14962 -0.28116,0.27204 -0.30253,0.27204 -0.0214,0 0.0798,-0.12242 0.2248,-0.27204 z m 0.85497,-0.77725 c 0.14502,-0.14962 0.28116,-0.27203 0.30254,-0.27203 0.0214,0 -0.0798,0.12241 -0.22481,0.27203 -0.14502,0.14962 -0.28116,0.27204 -0.30253,0.27204 -0.0214,0 0.0798,-0.12242 0.2248,-0.27204 z m 0.69953,-0.60725 c 0,-0.0134 0.11367,-0.12705 0.2526,-0.25261 l 0.25261,-0.22828 -0.22829,0.2526 c -0.21279,0.23547 -0.27692,0.28834 -0.27692,0.22829 z m 1.08814,-1.02496 c 0.1004,-0.10687 0.20004,-0.19432 0.22141,-0.19432 0.0214,0 -0.0433,0.0875 -0.14368,0.19432 -0.1004,0.10687 -0.20004,0.19431 -0.22141,0.19431 -0.0214,0 0.0433,-0.0874 0.14368,-0.19431 z m 0.85497,-0.77725 c 0.1004,-0.10687 0.20004,-0.19431 0.22141,-0.19431 0.0214,0 -0.0433,0.0874 -0.14368,0.19431 -0.1004,0.10687 -0.20004,0.19431 -0.22141,0.19431 -0.0214,0 0.0433,-0.0874 0.14368,-0.19431 z m 0.89384,-0.81611 c 0.0774,-0.0855 0.15817,-0.15545 0.17954,-0.15545 0.0214,0 -0.0244,0.07 -0.10182,0.15545 -0.0774,0.0855 -0.15817,0.15545 -0.17954,0.15545 -0.0214,0 0.0244,-0.07 0.10182,-0.15545 z m -8.82175,-1.59336 c 0.14501,-0.14962 0.28115,-0.27203 0.30253,-0.27203 0.0214,0 -0.0798,0.12241 -0.22481,0.27203 -0.14502,0.14962 -0.28115,0.27204 -0.30253,0.27204 -0.0214,0 0.0798,-0.12242 0.22481,-0.27204 z m 0.69627,-0.75781 c 0.32209,-0.34317 0.39187,-0.40488 0.39187,-0.34651 0,0.0125 -0.16613,0.17861 -0.36919,0.36919 l -0.36919,0.34651 z m 0.74163,-0.83554 c 0.16698,-0.171 0.32108,-0.3109 0.34245,-0.3109 0.0214,0 -0.0977,0.1399 -0.26472,0.3109 -0.16697,0.17099 -0.32107,0.3109 -0.34245,0.3109 -0.0214,0 0.0977,-0.13991 0.26472,-0.3109 z m 0.77725,-0.85497 c 0.16697,-0.171 0.32107,-0.3109 0.34245,-0.3109 0.0214,0 -0.0978,0.1399 -0.26472,0.3109 -0.16698,0.17099 -0.32108,0.3109 -0.34245,0.3109 -0.0214,0 0.0978,-0.13991 0.26472,-0.3109 z m -1.82653,-2.98289 c 0,-0.0161 0.0612,-0.0773 0.13602,-0.13601 0.12327,-0.0967 0.12602,-0.0939 0.0293,0.0293 -0.10153,0.12947 -0.16536,0.17064 -0.16536,0.10667 z m 0.23317,-0.31089 c 0,-0.0161 0.0612,-0.0773 0.13602,-0.13602 0.12328,-0.0967 0.12603,-0.0939 0.0293,0.0293 -0.10154,0.12947 -0.16537,0.17065 -0.16537,0.10668 z m 0.38863,-0.54408 c 0,-0.0161 0.0612,-0.0773 0.13602,-0.13602 0.12327,-0.0967 0.12602,-0.0939 0.0293,0.0293 -0.10154,0.12947 -0.16536,0.17064 -0.16536,0.10667 z m 0.23317,-0.3109 c 0,-0.0161 0.0612,-0.0773 0.13602,-0.13601 0.12328,-0.0967 0.12603,-0.0939 0.0294,0.0293 -0.10154,0.12947 -0.16537,0.17064 -0.16537,0.10667 z m 0.6218,-0.85497 c 0,-0.0161 0.0612,-0.0773 0.13602,-0.13602 0.12327,-0.0967 0.12602,-0.0939 0.0293,0.0293 -0.10153,0.12947 -0.16536,0.17064 -0.16536,0.10667 z m 5.60231,-15.71638 c 0.004,-0.0905 0.0221,-0.10896 0.047,-0.047 0.0224,0.0561 0.0197,0.12314 -0.006,0.14897 -0.0258,0.0258 -0.0442,-0.0201 -0.0408,-0.10202 z m 0.0867,-1.54801 c 0.002,-0.12825 0.019,-0.1713 0.0387,-0.0957 0.0197,0.0756 0.0184,0.18055 -0.003,0.23318 -0.0213,0.0526 -0.0374,-0.009 -0.0358,-0.1375 z m 3.33315,-0.47283 c 0.004,-0.0905 0.0221,-0.10896 0.047,-0.047 0.0224,0.0561 0.0197,0.12315 -0.006,0.14898 -0.0258,0.0258 -0.0442,-0.0201 -0.0408,-0.10202 z m -3.25542,-1.15939 c 0.002,-0.12825 0.019,-0.1713 0.0387,-0.0957 0.0197,0.0756 0.0184,0.18056 -0.003,0.23318 -0.0213,0.0526 -0.0374,-0.009 -0.0358,-0.1375 z m 3.25542,-1.17235 c 0.004,-0.0905 0.0221,-0.10896 0.047,-0.047 0.0224,0.0561 0.0197,0.12315 -0.006,0.14898 -0.0258,0.0258 -0.0442,-0.0201 -0.0408,-0.10202 z m -3.33315,-0.45987 c 0.002,-0.12824 0.019,-0.1713 0.0387,-0.0957 0.0197,0.0756 0.0184,0.18055 -0.003,0.23317 -0.0213,0.0526 -0.0374,-0.009 -0.0358,-0.1375 z m 3.25542,-1.09462 c 0.004,-0.0906 0.0222,-0.10896 0.047,-0.047 0.0224,0.0561 0.0197,0.12315 -0.006,0.14897 -0.0258,0.0258 -0.0442,-0.0201 -0.0408,-0.10201 z m -3.34216,-0.46635 c 0.004,-0.0905 0.0221,-0.10896 0.047,-0.047 0.0224,0.0561 0.0197,0.12315 -0.006,0.14897 -0.0258,0.0258 -0.0442,-0.0201 -0.0408,-0.10201 z m -5.92312,-16.17969 c -0.0967,-0.12327 -0.0939,-0.12602 0.0293,-0.0293 0.12947,0.10154 0.17064,0.16536 0.10667,0.16536 -0.0161,0 -0.0773,-0.0612 -0.13601,-0.13602 z m -0.23318,-0.31089 c -0.0967,-0.12328 -0.0939,-0.12603 0.0293,-0.0293 0.12947,0.10154 0.17064,0.16536 0.10667,0.16536 -0.0161,0 -0.0773,-0.0612 -0.13602,-0.13601 z m -0.38862,-0.54408 c -0.0967,-0.12327 -0.0939,-0.12602 0.0293,-0.0293 0.0748,0.0587 0.13602,0.11988 0.13602,0.13602 0,0.064 -0.0638,0.0228 -0.16536,-0.10668 z m -0.23317,-0.3109 c -0.0967,-0.12327 -0.0939,-0.12602 0.0293,-0.0293 0.12947,0.10154 0.17064,0.16536 0.10667,0.16536 -0.0161,0 -0.0773,-0.0612 -0.13601,-0.13602 z m -0.30099,-0.40805 c -0.0913,-0.12825 -0.14855,-0.23317 -0.12717,-0.23317 0.0214,0 0.11358,0.10492 0.2049,0.23317 0.0913,0.12825 0.14854,0.23317 0.12717,0.23317 -0.0214,0 -0.11358,-0.10492 -0.2049,-0.23317 z m -0.39451,-0.52464 -0.18842,-0.21374 0.21374,0.18842 c 0.11756,0.10364 0.21374,0.19982 0.21374,0.21375 0,0.0609 -0.0629,0.0113 -0.23906,-0.18843 z m -1.22103,-1.36018 c -4.70928,-5.1695 -10.1525,-8.37109 -17.34928,-10.20453 -2.54064,-0.64724 -2.2617,-0.38209 -2.23626,-2.12574 l 0.0211,-1.44643 0.81611,0.0133 c 1.79554,0.0293 6.14228,1.33749 9.33505,2.80944 3.59719,1.65841 7.97697,4.60888 9.78522,6.59188 0.14962,0.16408 0.0447,0.0881 -0.23318,-0.1689 -2.12086,-1.96141 -4.50351,-3.64033 -6.82034,-4.80593 l -0.5635,-0.2835 v 1.66235 1.66235 l 0.60236,0.41428 c 2.21214,1.52141 4.6309,3.56144 5.93657,5.007 0.23167,0.2565 0.73071,0.80737 1.10898,1.22417 0.37828,0.4168 0.6694,0.75781 0.64695,0.75781 -0.0225,0 -0.49485,-0.49841 -1.04979,-1.10757 z m 3.47675,-1.04929 -0.26785,-0.29146 0.29146,0.26785 c 0.2713,0.24931 0.32721,0.31508 0.26786,0.31508 -0.013,0 -0.14415,-0.13116 -0.29147,-0.29147 z m -0.73786,-0.81611 -0.30724,-0.33033 0.33033,0.30725 c 0.3072,0.28573 0.36605,0.35341 0.30724,0.35341 -0.0127,0 -0.16135,-0.14864 -0.33033,-0.33033 z m -0.81245,-0.8744 c -0.1888,-0.19237 -0.32578,-0.34976 -0.3044,-0.34976 0.0214,0 0.19333,0.15739 0.38212,0.34976 0.1888,0.19237 0.32578,0.34976 0.30441,0.34976 -0.0214,0 -0.19334,-0.15739 -0.38213,-0.34976 z m -0.81854,-0.91326 -0.46392,-0.48578 0.48578,0.46391 c 0.45125,0.43094 0.52135,0.50765 0.46392,0.50765 -0.012,0 -0.23063,-0.2186 -0.48578,-0.48578 z m 8.35195,-1.90426 -0.18843,-0.21374 0.21374,0.18843 c 0.19978,0.17611 0.24939,0.23906 0.18843,0.23906 -0.0139,0 -0.1101,-0.0962 -0.21374,-0.21375 z m -0.89284,-0.81611 -0.22829,-0.2526 0.25261,0.22828 c 0.23546,0.2128 0.28833,0.27693 0.22828,0.27693 -0.0134,0 -0.12704,-0.11367 -0.2526,-0.25261 z m -0.89313,-0.81611 -0.26785,-0.29146 0.29147,0.26785 c 0.1603,0.14732 0.29146,0.27848 0.29146,0.29147 0,0.0593 -0.0658,0.003 -0.31508,-0.26786 z m -0.9327,-0.85497 -0.26785,-0.29146 0.29147,0.26785 c 0.16031,0.14732 0.29147,0.27848 0.29147,0.29147 0,0.0594 -0.0658,0.003 -0.31509,-0.26786 z m -0.8933,-0.81611 -0.30724,-0.33033 0.33033,0.30725 c 0.3072,0.28573 0.36604,0.35341 0.30724,0.35341 -0.0127,0 -0.16135,-0.14864 -0.33033,-0.33033 z m -0.66692,-0.58293 c -0.0967,-0.12328 -0.0939,-0.12603 0.0293,-0.0293 0.0748,0.0587 0.13601,0.11988 0.13601,0.13602 0,0.064 -0.0638,0.0228 -0.16536,-0.10667 z m -0.3109,-0.23318 c -0.0967,-0.12327 -0.0939,-0.12602 0.0293,-0.0293 0.0748,0.0587 0.13602,0.11988 0.13602,0.13602 0,0.064 -0.0638,0.0228 -0.16537,-0.10668 z m -0.3109,-0.23317 c -0.0967,-0.12328 -0.0939,-0.12602 0.0294,-0.0293 0.0748,0.0587 0.13602,0.11987 0.13602,0.13601 0,0.064 -0.0638,0.0228 -0.16537,-0.10667 z m -0.31089,-0.23317 c -0.0967,-0.12328 -0.0939,-0.12603 0.0293,-0.0294 0.0748,0.0587 0.13602,0.11988 0.13602,0.13602 0,0.064 -0.0638,0.0228 -0.16536,-0.10667 z m 4.82296,-0.23318 -0.18843,-0.21374 0.21374,0.18843 c 0.19977,0.17611 0.24939,0.23906 0.18843,0.23906 -0.0139,0 -0.11011,-0.0962 -0.21374,-0.21375 z m -5.13386,0 c -0.0967,-0.12327 -0.0939,-0.12602 0.0293,-0.0293 0.0748,0.0587 0.13602,0.11988 0.13602,0.13602 0,0.064 -0.0638,0.0228 -0.16536,-0.10668 z m -1.23368,-0.9036 c -5.06165,-3.84362 -12.7893,-7.07387 -19.74207,-8.25242 -1.09009,-0.18478 -2.19184,-0.40076 -2.44833,-0.47996 l -0.46634,-0.14399 -0.0389,-1.49369 -0.0389,-1.49369 0.89383,0.0293 c 3.96347,0.12991 11.03546,2.15824 16.21286,4.65003 1.89255,0.91085 6.09412,3.29325 6.09412,3.45552 0,0.0201 -0.0262,0.0206 -0.0583,0.001 -3.8068,-2.31238 -7.68542,-4.29339 -8.86981,-4.53027 l -0.24341,-0.0487 v 1.52437 1.52437 l 0.30047,0.18968 c 0.16526,0.10432 0.9719,0.52575 1.79255,0.9365 2.29543,1.14893 7.70029,4.58931 7.70029,4.9015 0,0.0576 0.0178,0.0701 -1.08814,-0.76965 z m 5.55242,0.16522 -0.22828,-0.25261 0.2526,0.22829 c 0.23546,0.21279 0.28833,0.27692 0.22829,0.27692 -0.0134,0 -0.12705,-0.11367 -0.25261,-0.2526 z m -0.77974,-0.69952 -0.14807,-0.17488 0.17488,0.14806 c 0.16435,0.13914 0.21027,0.2017 0.14807,0.2017 -0.0147,0 -0.0934,-0.0787 -0.17488,-0.17488 z m -1.59589,-1.20474 c -0.0967,-0.12327 -0.0939,-0.12602 0.0293,-0.0293 0.0748,0.0587 0.13602,0.11988 0.13602,0.13602 0,0.064 -0.0638,0.0228 -0.16537,-0.10668 z m -0.3109,-0.23317 c -0.0967,-0.12328 -0.0939,-0.12603 0.0293,-0.0293 0.0748,0.0587 0.13602,0.11988 0.13602,0.13602 0,0.064 -0.0638,0.0228 -0.16537,-0.10667 z m -0.31089,-0.23317 c -0.0967,-0.12328 -0.0939,-0.12603 0.0293,-0.0293 0.0748,0.0587 0.13602,0.11988 0.13602,0.13602 0,0.064 -0.0638,0.0228 -0.16536,-0.10667 z m -0.3109,-0.23318 c -0.0967,-0.12327 -0.0939,-0.12602 0.0293,-0.0293 0.0748,0.0587 0.13602,0.11987 0.13602,0.13601 0,0.064 -0.0638,0.0228 -0.16536,-0.10667 z m -0.3109,-0.23317 c -0.0967,-0.12328 -0.0939,-0.12603 0.0293,-0.0293 0.0748,0.0587 0.13602,0.11988 0.13602,0.13602 0,0.064 -0.0638,0.0228 -0.16536,-0.10667 z m -0.41757,-0.29828 -0.23318,-0.20035 0.25261,0.16717 c 0.13893,0.0919 0.2526,0.18227 0.2526,0.20073 0,0.0582 -0.0329,0.0379 -0.27203,-0.16755 z m -0.4374,-0.32352 c -0.0967,-0.12328 -0.0939,-0.12602 0.0293,-0.0293 0.0748,0.0587 0.13602,0.11988 0.13602,0.13602 0,0.064 -0.0638,0.0228 -0.16536,-0.10667 z m -0.37871,-0.25955 c -0.1674,-0.13693 -0.17069,-0.14739 -0.0238,-0.0756 0.0938,0.0459 0.19205,0.11815 0.21833,0.16067 0.0702,0.11351 0.023,0.0929 -0.19457,-0.0851 z M 108.10043,70.229576 c -0.0641,-0.01385 -0.35342,-0.04763 -0.64288,-0.07507 l -0.5263,-0.0499 0.0211,-1.486708 0.0211,-1.486708 0.27203,-0.07529 c 0.17047,-0.04718 5.94546,-0.08012 15.46721,-0.08823 12.19722,-0.01038 13.66936,-0.0021 7.46157,0.04187 -4.25348,0.03014 -8.07462,0.08044 -8.49142,0.111782 l -0.75782,0.05698 v 1.429172 1.429172 l 0.19826,0.04976 c 0.10903,0.02737 2.84591,0.07453 6.08195,0.104802 5.00408,0.04681 4.0245,0.05568 -6.55224,0.05929 -6.83977,0.0023 -12.48841,-0.0071 -12.55254,-0.02093 z m 4.77791,-24.4417 c -1.86553,-0.07703 -1.66892,0.115674 -1.66892,-1.635822 0,-0.929204 -0.0286,-1.471531 -0.0777,-1.471531 -0.0427,0 -0.0777,-0.03498 -0.0777,-0.07772 0,-0.05144 3.60778,-0.07775 10.66771,-0.07781 l 10.66771,-8.9e-5 -0.0239,1.545827 -0.0239,1.545827 1.69496,0.05832 c 0.93223,0.03207 6.45171,0.08234 12.26552,0.11171 8.95284,0.04522 7.3054,0.05359 -10.76487,0.05467 -11.73448,7.03e-4 -21.93099,-0.02332 -22.6589,-0.05337 z m 48.45358,-1.766602 c -0.0967,-0.123276 -0.0939,-0.126025 0.0293,-0.02934 0.0748,0.05867 0.13602,0.119878 0.13602,0.136018 0,0.06397 -0.0638,0.0228 -0.16536,-0.106673 z"
         id="path44" /><path
         style="fill:#2271ea"
         d="m 132.39771,258.399 c -0.0259,-0.0676 -0.0472,-0.76195 -0.0472,-1.54296 v -1.42001 l 1.10758,-0.0505 c 0.60916,-0.0278 6.00423,-0.0706 11.98903,-0.0952 14.16131,-0.0582 13.37094,0.01 13.99708,-1.19875 0.24981,-0.48208 0.25228,-1.49335 0.25228,-103.56813 0,-102.07478 -0.002,-103.086048 -0.25228,-103.56813 -0.62614,-1.208258 0.16423,-1.140569 -13.99708,-1.198745 -5.9848,-0.02459 -11.37987,-0.06741 -11.98903,-0.09517 l -1.10758,-0.05047 v -1.420016 c 0,-0.781008 0.0212,-1.47534 0.0472,-1.542959 0.0427,-0.111236 1.00863,-0.122944 10.14307,-0.122944 h 10.09589 v 1.554494 1.554493 l 0.44691,0.0041 c 5.9994,0.05488 6.48512,0.230173 6.63623,2.394904 0.0754,1.080613 0.0754,203.900293 0,204.980913 -0.15111,2.16473 -0.63683,2.34002 -6.63623,2.3949 l -0.44691,0.004 v 1.55449 1.5545 h -10.09589 c -9.13444,0 -10.10039,-0.0117 -10.14307,-0.12295 z m 24.72895,0.0666 c 0.1397,-0.0173 0.34955,-0.017 0.46635,7.9e-4 0.11679,0.0177 0.002,0.0319 -0.254,0.0315 -0.25649,-4.3e-4 -0.35205,-0.0149 -0.21235,-0.0322 z m 1.26163,-0.0976 c 0,-0.0436 0.0962,-0.0797 0.21375,-0.0802 1.75835,-0.009 3.68041,-1.91785 4.1747,-4.14697 0.0272,-0.1226 0.0653,-0.20708 0.0846,-0.18773 0.0809,0.0809 -0.29326,1.27644 -0.56157,1.79418 -0.59085,1.14009 -1.96386,2.234 -3.1731,2.52809 -0.6621,0.16102 -0.73839,0.17059 -0.73839,0.0927 z m 4.5292,-5.28676 c 0,-0.19237 0.0152,-0.27107 0.0337,-0.17488 0.0185,0.0962 0.0185,0.25357 0,0.34976 -0.0185,0.0962 -0.0337,0.0175 -0.0337,-0.17488 z m -32.70687,-19.0449 c -4.27622,-0.0298 -8.07987,-0.0796 -8.45256,-0.11061 l -0.67761,-0.0564 v -1.42261 c 0,-1.74961 -1.37814,-1.51345 9.36583,-1.60496 5.00158,-0.0426 9.1375,-0.0916 9.19094,-0.10888 0.0774,-0.025 0.0971,-4.38239 0.0971,-21.44333 V 187.8776 l -1.4962,-2.25602 c -1.74586,-2.63246 -1.46805,-2.49654 -2.73979,-1.34049 -3.47208,3.15622 -11.25958,7.87362 -14.20582,8.60541 l -0.21538,0.0535 0.0211,-1.58089 0.0211,-1.58089 1.90547,-0.97343 c 4.39246,-2.24393 7.71793,-4.58766 11.769,-8.29457 1.32242,-1.21007 2.4301,-2.20013 2.4615,-2.20013 0.0314,0 1.33701,1.91494 2.90137,4.25543 l 2.84429,4.25542 -0.0205,23.6283 -0.0205,23.62831 -2.48719,0.006 c -1.36796,0.004 -5.98592,-0.0179 -10.26214,-0.0477 z m 12.69116,-23.63095 0.0196,-23.59444 -2.79109,-4.13966 c -1.53509,-2.27681 -2.8103,-4.15888 -2.83379,-4.18237 -0.0627,-0.0627 -0.42895,0.25846 -1.6232,1.42382 l -1.06872,1.04286 v 1.90812 1.90811 l 0.25261,-0.17976 c 0.13893,-0.0989 0.56739,-0.45068 0.95213,-0.7818 0.93346,-0.80336 0.72779,-0.94611 2.47775,1.71974 l 1.52507,2.32325 v 21.45591 c 0,11.80075 -0.0295,21.47414 -0.0655,21.49641 -0.036,0.0223 -1.05909,0.0609 -2.27345,0.0858 -1.21436,0.0249 -2.35657,0.0634 -2.53826,0.0854 l -0.33033,0.0401 v 1.43314 c 0,1.43125 2.4e-4,1.43316 0.17489,1.44381 0.56152,0.0342 5.45416,0.11602 6.66489,0.11141 l 1.4379,-0.005 z m -23.22037,-29.13885 v -1.62933 l 0.47553,-0.32292 c 20.78971,-14.11803 20.85397,-43.24858 0.12683,-57.50379 l -0.60236,-0.41428 v -1.66235 -1.66235 l 0.5635,0.2835 c 7.28618,3.66568 13.80907,11.41307 16.76521,19.91242 0.88387,2.54126 2.04235,7.77292 1.8494,8.35179 -0.0161,0.0484 -0.12816,-0.62732 -0.24897,-1.5015 -0.79231,-5.73307 -3.7965,-12.97566 -6.75261,-16.27938 l -0.27819,-0.3109 -0.003,2.58993 -0.003,2.58994 0.19003,0.32474 c 5.34013,9.12559 5.38603,22.17434 0.11514,32.73593 l -0.31032,0.62179 0.022,2.56492 0.022,2.56491 0.59439,-0.73838 c 4.25622,-5.28729 7.01624,-14.40339 6.8008,-22.46243 l -0.0384,-1.43791 0.0783,1.20473 c 0.67506,10.38898 -4.12225,21.7284 -12.27346,29.0108 -2.19144,1.95787 -6.33263,4.79944 -6.99449,4.79944 -0.0755,0 -0.0978,-0.37178 -0.0978,-1.62932 z m 19.22412,-33.96858 c 0,-0.32062 0.0137,-0.45178 0.0305,-0.29147 0.0168,0.16031 0.0168,0.42263 0,0.58293 -0.0168,0.16031 -0.0305,0.0291 -0.0305,-0.29146 z m -2.68199,-25.35167 c -0.48215,-0.44148 -1.55642,-1.42634 -2.38726,-2.18859 -3.01071,-2.76214 -7.2457,-5.68933 -10.81826,-7.47749 -0.82065,-0.41075 -1.62729,-0.83218 -1.79255,-0.9365 l -0.30047,-0.18968 v -1.52437 -1.52437 l 0.24341,0.0487 c 2.5811,0.51622 10.71538,5.43741 14.20175,8.59199 1.30075,1.17696 1.0175,1.31111 2.73563,-1.29569 l 1.47281,-2.23458 1.6e-4,-21.471446 1.6e-4,-21.471441 -2.00141,-0.0023 c -4.28397,-0.0049 -16.3968,-0.149406 -16.52119,-0.19714 -0.11663,-0.04476 -0.13132,-0.208981 -0.13132,-1.468742 V 67.18629 l 0.52464,-0.0511 c 1.04079,-0.101369 21.25047,-0.213464 21.36489,-0.118503 0.0898,0.07455 0.10655,3.781015 0.10655,23.609333 v 23.5209 l -2.81178,4.21914 c -1.54649,2.32053 -2.85619,4.25599 -2.91046,4.30103 -0.0741,0.0615 -0.31674,-0.1178 -0.9753,-0.72081 z m 1.28239,0.14944 c 0.18938,-0.26718 1.46783,-2.16184 2.841,-4.21037 l 2.49668,-3.72458 -0.0196,-23.556778 -0.0196,-23.556773 -3.18671,0.02019 c -1.7527,0.01111 -3.61517,0.04086 -4.13884,0.06612 l -0.95213,0.04593 v 1.425317 1.425318 l 0.33033,0.04006 c 0.18168,0.02203 1.30582,0.06012 2.49809,0.08464 1.19227,0.02452 2.19783,0.06316 2.23458,0.08588 0.037,0.02288 0.0668,9.621696 0.0668,21.522276 v 21.48098 l -1.4962,2.29655 c -1.724,2.64621 -1.51678,2.50669 -2.48065,1.67019 -0.39902,-0.34631 -0.82048,-0.6976 -0.93658,-0.78065 l -0.21108,-0.15101 -0.0221,1.91941 -0.0221,1.91941 1.28245,1.23033 c 1.49738,1.43651 1.30571,1.35395 1.73552,0.74757 z m 25.41156,-74.129909 c 0,-0.192368 0.0152,-0.271065 0.0337,-0.17488 0.0185,0.09618 0.0185,0.253576 0,0.349761 -0.0185,0.09618 -0.0337,0.01749 -0.0337,-0.174881 z m -0.14075,-1.059543 c -0.49885,-2.249659 -2.42014,-4.14801 -4.19815,-4.14801 -0.10466,0 -0.1903,-0.03564 -0.1903,-0.07921 0,-0.15759 1.13027,0.170037 1.82653,0.529449 0.74407,0.38409 1.69399,1.336908 2.08496,2.091315 0.26831,0.51774 0.6425,1.713246 0.56157,1.79418 -0.0193,0.01935 -0.0574,-0.06513 -0.0846,-0.187729 z m -5.65008,-4.359789 c 0.1397,-0.0173 0.34955,-0.01694 0.46635,7.93e-4 0.11679,0.01773 0.002,0.03189 -0.254,0.03145 -0.25649,-4.36e-4 -0.35205,-0.01495 -0.21235,-0.03224 z"
         id="path43" /><path
         style="fill:#dc148c"
         d="m 46.251029,258.46451 c 0.245804,-0.0154 0.648029,-0.0154 0.893833,0 0.245805,0.0154 0.04469,0.028 -0.446916,0.028 -0.491609,0 -0.692721,-0.0126 -0.446917,-0.028 z m 3.730784,-0.0588 c -0.07026,-0.0798 -0.09716,-0.50925 -0.09716,-1.55153 v -1.44119 l -0.99099,-0.004 c -3.557007,-0.0128 -4.281135,-0.2118 -4.792646,-1.31687 L 43.93872,253.74188 V 150.52351 47.305142 l 0.162301,-0.350634 c 0.511511,-1.105067 1.235639,-1.304035 4.792646,-1.316871 l 0.99099,-0.0036 v -1.443458 c 0,-1.147364 0.02278,-1.466235 0.111035,-1.554494 0.167166,-0.167165 21.140497,-0.167165 21.307663,0 0.08821,0.08821 0.111035,0.405874 0.111035,1.545078 v 1.434042 l -1.185301,0.05536 c -0.651916,0.03045 -6.414228,0.08415 -12.805139,0.119332 -6.661254,0.03667 -11.735925,0.09473 -11.891874,0.136038 -0.589049,0.156045 -1.003644,0.486122 -1.293015,1.029422 -0.141163,0.265037 -0.144892,2.930147 -0.144892,103.568133 V 253.8196 l 0.170302,0.31826 c 0.607611,1.1355 -0.387837,1.05063 13.159479,1.122 6.390911,0.0337 12.153223,0.0861 12.805139,0.11657 l 1.185301,0.0554 v 1.43404 c 0,1.13921 -0.02283,1.45687 -0.111035,1.54508 -0.166548,0.16655 -21.17484,0.1614 -21.321542,-0.005 z m -5.365682,-0.1185 c -1.556128,-0.40732 -2.910681,-1.61055 -3.498181,-3.1074 -0.21499,-0.54775 -0.345678,-1.15062 -0.274423,-1.26591 0.03057,-0.0495 0.09946,0.14782 0.153091,0.4384 0.382245,2.07109 2.500744,3.92785 4.490118,3.93535 0.358891,0.001 0.346531,0.0407 -0.03238,0.10301 -0.160543,0.0264 -0.504085,-0.016 -0.83822,-0.10345 z m -3.8789,-5.32255 c 4.36e-4,-0.25649 0.01495,-0.35205 0.03224,-0.21235 0.0173,0.1397 0.01694,0.34956 -7.93e-4,0.46635 -0.01774,0.11679 -0.03189,0.002 -0.03145,-0.254 z m 17.904405,-18.90005 c -0.0285,-0.0285 -0.05182,-10.72601 -0.05182,-23.77226 v -23.72044 l 2.03295,-2.67356 c 3.819559,-5.02316 4.962057,-6.51163 5.030628,-6.55401 0.03772,-0.0233 0.658594,0.55511 1.379724,1.28538 2.312327,2.34163 4.346797,4.13612 6.483928,5.7191 1.820616,1.34854 3.151225,2.20585 6.233311,4.01615 l 0.757815,0.44511 v 1.58631 1.5863 l -0.50352,-0.18953 c -3.594417,-1.35293 -9.762729,-5.49483 -13.341072,-8.95827 -0.285877,-0.2767 -0.568132,-0.48626 -0.634715,-0.47126 -0.156413,0.0353 -4.085957,5.24169 -4.150629,5.49936 -0.04348,0.17322 0.03163,42.84552 0.07547,42.87595 0.0094,0.007 4.126828,0.0487 9.149784,0.0938 10.776421,0.0966 9.404685,-0.13832 9.404685,1.61088 v 1.41956 l -0.451906,0.0511 c -0.884394,0.10006 -21.321438,0.24351 -21.414634,0.15031 z m 6.454457,-0.15472 1.104408,-0.0505 0.0226,-1.46491 0.0226,-1.46491 -2.084245,9e-5 c -1.288257,5e-5 -2.14166,-0.0306 -2.234584,-0.0804 -0.148082,-0.0793 -0.15034,-0.40417 -0.15034,-21.63138 v -21.55091 l 1.068978,-1.43342 c 0.587938,-0.78839 1.514684,-2.03677 2.059435,-2.77418 0.709274,-0.96012 1.034664,-1.34075 1.146175,-1.34075 0.151861,0 0.155718,-0.0506 0.155718,-2.04446 v -2.04445 l -0.258557,-0.25061 -0.258558,-0.2506 -0.503855,0.64341 c -0.904965,1.15562 -5.151565,6.68366 -5.843293,7.60654 l -0.67503,0.90061 v 23.58914 c 0,12.97403 0.02332,23.61246 0.05182,23.64096 0.0665,0.0665 4.926807,0.0671 6.376732,7.3e-4 z m 18.088109,-51.3557 c -22.734378,-12.11327 -24.921471,-45.75907 -3.999287,-61.52425 1.507803,-1.13615 4.488751,-2.95645 4.841523,-2.95645 0.03309,0 0.05072,0.74106 0.03919,1.6468 l -0.02098,1.64681 -0.932696,0.65464 c -20.183301,14.16645 -20.080256,44.46336 0.194312,57.13102 0.106872,0.0668 0.325472,0.22222 0.485779,0.34543 l 0.291468,0.22403 v 1.62568 c 0,0.89413 -0.02623,1.62516 -0.05829,1.62451 -0.03206,-6.5e-4 -0.410518,-0.18885 -0.841015,-0.41822 z m -12.3438,-17.81742 c -4.041881,-9.06735 -4.042674,-19.37682 -0.0022,-28.42428 l 0.653897,-1.46421 v -2.76251 -2.76251 l -0.312394,0.39235 c -8.384091,10.52998 -8.424751,30.36392 -0.08507,41.49497 l 0.358596,0.47862 0.0204,-2.74303 0.0204,-2.74303 z m -8.858526,-45.6596 -3.547506,-4.67019 V 90.800246 c 0,-19.53186 0.01786,-23.631166 0.103478,-23.748253 0.100145,-0.136957 20.408529,-0.05458 21.562274,0.08746 l 0.330329,0.04067 v 1.424505 c 0,1.752835 1.389904,1.515318 -9.476681,1.619447 l -9.138376,0.08757 -0.01957,21.497477 -0.01957,21.497478 2.021529,2.69433 c 1.111842,1.48188 2.058385,2.69433 2.103431,2.69433 0.04505,0 0.606423,-0.47132 1.247507,-1.04737 4.044497,-3.6342 9.710458,-7.35342 12.845699,-8.43211 l 0.43603,-0.15001 v 1.57215 1.57215 l -0.718953,0.41737 c -5.357868,3.11041 -8.041781,5.13059 -11.957402,9.00037 -1.179565,1.16575 -2.162674,2.11955 -2.184689,2.11955 -0.02201,0 -1.636403,-2.10159 -3.587531,-4.67019 z m 4.069512,1.89447 c 0,-1.92832 -0.008,-2.04321 -0.142274,-2.04321 -0.081,0 -0.25552,-0.15899 -0.405246,-0.36919 -0.144636,-0.20306 -1.081812,-1.47094 -2.082614,-2.81752 l -1.819641,-2.44833 0.03682,-21.51787 c 0.03139,-18.341416 0.0529,-21.528052 0.145752,-21.586839 0.05991,-0.03793 1.053285,-0.06946 2.207496,-0.07007 l 2.098566,-0.0011 -0.0226,-1.464957 -0.0226,-1.464957 -1.058404,-0.05076 c -0.582122,-0.02792 -2.259549,-0.05076 -3.727615,-0.05076 h -2.669212 v 23.67321 23.673213 l 0.98851,1.29584 c 1.929012,2.52875 4.876754,6.35849 5.450369,7.08118 l 0.581981,0.73323 0.220354,-0.26394 0.220354,-0.26395 z M 40.737231,48.082388 c 4.36e-4,-0.256491 0.01495,-0.352049 0.03224,-0.212351 0.0173,0.139699 0.01694,0.349555 -7.93e-4,0.466348 -0.01774,0.116793 -0.03189,0.0025 -0.03145,-0.253997 z m 0.109447,-0.948727 c -0.187078,-0.28858 0.430277,-1.845153 1.026411,-2.587951 0.917379,-1.143076 2.723346,-2.07363 3.643795,-1.877526 0.265754,0.05662 0.244714,0.06526 -0.281433,0.115514 -2.106492,0.201213 -4.100513,2.15155 -4.304852,4.210545 -0.01447,0.145774 -0.04592,0.198032 -0.08392,0.139418 z m 5.404351,-4.5883 c 0.245804,-0.01542 0.648029,-0.01542 0.893833,0 0.245805,0.01543 0.04469,0.02804 -0.446916,0.02804 -0.491609,0 -0.692721,-0.01262 -0.446917,-0.02804 z"
         id="path42" /><path
         style="fill:#7a43bc"
         d="m 94.129424,258.40568 c -0.07025,-0.0798 -0.09716,-0.50855 -0.09716,-1.54801 V 255.42 l -0.277361,-0.052 c -0.152549,-0.0286 -1.945074,-0.0768 -3.983389,-0.107 -2.363677,-0.0351 1.389567,-0.0552 10.362136,-0.0557 7.7375,-4.2e-4 13.4726,0.0238 12.74469,0.0539 -1.8638,0.077 -1.66892,-0.11016 -1.66892,1.60251 0,1.14283 -0.0228,1.46103 -0.11104,1.54926 -0.16635,0.16635 -16.822413,0.16122 -16.96896,-0.005 z m -1.185301,-24.37103 c 1.004591,-0.0291 1.992666,-0.0576 2.195722,-0.0633 l 0.369192,-0.0104 v -1.47677 c 0,-1.07334 0.02477,-1.47677 0.09068,-1.47677 0.04987,0 0.06734,-0.0233 0.03881,-0.0519 -0.02852,-0.0285 -0.74262,-0.0752 -1.586878,-0.1037 -0.844259,-0.0285 2.032547,-0.0529 6.392901,-0.0541 4.36036,-0.001 7.85797,0.009 7.77247,0.0218 -0.0855,0.0133 -0.39154,0.0463 -0.68009,0.0733 l -0.52464,0.0492 v 1.47302 c 0,1.70452 -0.10193,1.53804 0.99263,1.62123 0.41589,0.0316 -3.21361,0.0561 -8.065581,0.0544 -4.945134,-0.002 -8.019102,-0.0264 -6.99522,-0.056 z m 5.518451,-37.23672 c -1.091285,-0.0743 -4.148017,-0.42877 -4.624617,-0.53626 -0.339207,-0.0765 -0.409712,-0.0799 1.104319,0.0534 l 0.560247,0.0494 0.02269,-1.5139 c 0.01453,-0.96939 -0.0053,-1.51634 -0.05504,-1.52072 -0.213156,-0.0188 -1.666163,-0.36063 -1.640744,-0.38605 0.01616,-0.0162 0.339477,0.023 0.718477,0.087 3.741828,0.63198 8.493484,0.72249 13.008454,0.2478 l 0.34976,-0.0368 -0.3109,0.10632 c -0.17099,0.0585 -0.3721,0.10899 -0.44691,0.11228 -0.12469,0.005 -0.13602,0.13224 -0.13602,1.5216 v 1.51564 h 0.55702 c 1.0726,0 0.46221,0.0766 -1.84473,0.23144 -2.43843,0.16368 -5.45,0.19223 -7.262008,0.0688 z m -5.264367,-0.66504 c 0.07562,-0.0197 0.180552,-0.0184 0.233174,0.003 0.05262,0.0213 -0.0093,0.0374 -0.137497,0.0358 -0.128246,-0.002 -0.1713,-0.019 -0.09568,-0.0387 z m -0.506689,-0.0753 c 0.05343,-0.0216 0.140876,-0.0216 0.194311,0 0.05344,0.0216 0.0097,0.0392 -0.09716,0.0392 -0.106872,0 -0.150592,-0.0176 -0.09716,-0.0392 z m -0.46149,-0.0794 c 0.05611,-0.0224 0.123145,-0.0197 0.148972,0.006 0.02583,0.0258 -0.02008,0.0442 -0.102014,0.0408 -0.09054,-0.004 -0.108962,-0.0222 -0.04696,-0.047 z m 1.161012,-3.10737 c 0.05344,-0.0216 0.140876,-0.0216 0.194311,0 0.05344,0.0216 0.0097,0.0392 -0.09716,0.0392 -0.106872,0 -0.150592,-0.0176 -0.09716,-0.0392 z m -0.383766,-0.0793 c 0.05611,-0.0225 0.123145,-0.0197 0.148973,0.006 0.02583,0.0258 -0.02008,0.0442 -0.102014,0.0408 -0.09054,-0.004 -0.108962,-0.0222 -0.04696,-0.047 z m 6.465721,-5.12276 c -0.919094,-0.0567 -2.21321,-0.18965 -2.875813,-0.29542 -1.184041,-0.18901 -1.097285,-0.20857 0.388624,-0.0876 l 0.272036,0.0222 -0.03886,-1.52592 -0.03886,-1.52591 -0.816109,-0.16617 c -1.115175,-0.22706 -0.764449,-0.22066 0.738385,0.0135 2.768795,0.43137 6.578852,0.42966 9.545542,-0.004 0.76143,-0.11138 1.42599,-0.18559 1.47676,-0.16491 0.0508,0.0207 0.0125,0.0403 -0.085,0.0437 -0.0976,0.003 -0.29944,0.0571 -0.44864,0.11948 l -0.27127,0.11334 0.0212,1.46058 0.0212,1.46058 0.46636,0.0389 c 1.16791,0.0973 -4.56357,0.65536 -6.28053,0.61148 -0.22209,-0.006 -1.15579,-0.0567 -2.07488,-0.11343 z m -4.48712,-0.55191 c 0.07562,-0.0197 0.180552,-0.0184 0.233174,0.003 0.05262,0.0213 -0.0093,0.0374 -0.137498,0.0358 -0.128245,-0.002 -0.1713,-0.019 -0.09568,-0.0387 z m 13.644055,7.7e-4 c 0.0561,-0.0225 0.12315,-0.0197 0.14897,0.006 0.0258,0.0258 -0.0201,0.0442 -0.10201,0.0408 -0.0905,-0.004 -0.10896,-0.0221 -0.047,-0.047 z m -14.068162,-0.0777 c 0.05611,-0.0225 0.123145,-0.0197 0.148972,0.006 0.02583,0.0258 -0.02008,0.0442 -0.102014,0.0408 -0.09055,-0.004 -0.108962,-0.0221 -0.04696,-0.047 z m 0.699522,-3.18671 c 0.05611,-0.0224 0.123145,-0.0197 0.148972,0.006 0.02583,0.0258 -0.02008,0.0442 -0.102014,0.0408 -0.09055,-0.004 -0.108962,-0.0221 -0.04696,-0.047 z m -0.310899,-0.0777 c 0.05611,-0.0224 0.123145,-0.0197 0.148972,0.006 0.02583,0.0258 -0.02008,0.0442 -0.102013,0.0408 -0.09054,-0.004 -0.108963,-0.0221 -0.04696,-0.047 z m 0,-66.53232 c 0.05611,-0.0225 0.123145,-0.0197 0.148972,0.006 0.02583,0.0258 -0.02008,0.0442 -0.102013,0.0408 -0.09054,-0.004 -0.108963,-0.0221 -0.04696,-0.047 z m 0.310899,-0.0777 c 0.05611,-0.0225 0.123145,-0.0197 0.148972,0.006 0.02583,0.0258 -0.02008,0.0442 -0.102014,0.0408 -0.09055,-0.004 -0.108962,-0.0221 -0.04696,-0.047 z m 1.102718,-0.20822 0.816109,-0.16617 0.03886,-1.52564 0.03886,-1.52564 -0.349761,0.027 c -1.815914,0.14044 -1.792269,0.1092 0.116587,-0.15403 3.075697,-0.42415 6.482517,-0.42065 9.676717,0.01 1.42121,0.19158 1.54297,0.21898 1.12701,0.25365 l -0.46635,0.0389 -0.0212,1.42778 c -0.0235,1.58246 -0.0181,1.60234 0.45842,1.68285 0.17141,0.029 0.29527,0.069 0.27523,0.0891 -0.02,0.02 -0.6607,-0.0549 -1.42371,-0.1665 -2.96957,-0.43437 -6.778515,-0.43625 -9.548372,-0.005 -1.502834,0.23414 -1.85356,0.24054 -0.738385,0.0135 z m -1.379613,-3.0567 c 0.07481,-0.0195 0.197227,-0.0195 0.272037,0 0.07481,0.0195 0.0136,0.0356 -0.136018,0.0356 -0.14962,0 -0.210829,-0.016 -0.136019,-0.0356 z m 13.645535,4.9e-4 c 0.0561,-0.0225 0.12315,-0.0197 0.14897,0.006 0.0258,0.0258 -0.0201,0.0442 -0.10201,0.0408 -0.0905,-0.004 -0.10896,-0.0221 -0.047,-0.0469 z m -15.782963,-5.67229 c 0.05344,-0.0216 0.140876,-0.0216 0.194312,0 0.05343,0.0216 0.0097,0.0392 -0.09716,0.0392 -0.106871,0 -0.150592,-0.0176 -0.09716,-0.0392 z m 0.388623,-0.0777 c 0.05344,-0.0216 0.140876,-0.0216 0.194312,0 0.05344,0.0216 0.0097,0.0392 -0.09716,0.0392 -0.106871,0 -0.150591,-0.0176 -0.09716,-0.0392 z m 1.110839,-0.2139 c 0.450654,-0.0946 0.879111,-0.19486 0.952127,-0.22288 0.118807,-0.0456 0.132756,-0.20758 0.132756,-1.54169 v -1.49076 l -0.641228,0.0515 c -0.352676,0.0283 -0.816109,0.0674 -1.029852,0.0869 l -0.388623,0.0354 0.349761,-0.0759 c 2.91473,-0.63288 10.63665,-0.80681 13.91272,-0.31336 l 0.42748,0.0644 -0.54407,0.0186 c -0.29924,0.0102 -0.56156,0.0173 -0.58294,0.0157 -0.0214,-0.002 -0.0214,0.6664 0,1.48438 l 0.0389,1.48723 0.42748,0.13902 c 0.38654,0.12571 0.39771,0.13517 0.11659,0.0987 -0.65435,-0.0848 -3.7172,-0.27818 -5.12983,-0.3239 -2.13827,-0.0692 -6.295039,0.23243 -8.19113,0.59439 -0.79007,0.15082 -0.669571,0.0642 0.149889,-0.10773 z m -2.271851,-2.89671 c 0.05611,-0.0225 0.123145,-0.0197 0.148973,0.006 0.02583,0.0258 -0.02008,0.0442 -0.102014,0.0408 -0.09055,-0.004 -0.108962,-0.0221 -0.04696,-0.047 z m 0.544073,-0.0777 c 0.05611,-0.0225 0.123145,-0.0197 0.148972,0.006 0.02583,0.0258 -0.02008,0.0442 -0.102013,0.0408 -0.09055,-0.004 -0.108963,-0.0221 -0.04696,-0.047 z m 0.424107,-0.0785 c 0.07562,-0.0197 0.180552,-0.0184 0.233174,0.003 0.05262,0.0213 -0.0093,0.0374 -0.137497,0.0358 -0.128246,-0.002 -0.171301,-0.019 -0.09568,-0.0387 z m 15.276272,-0.31014 c 0.0561,-0.0224 0.12315,-0.0197 0.14898,0.006 0.0258,0.0258 -0.0201,0.0442 -0.10202,0.0408 -0.0905,-0.004 -0.10896,-0.0221 -0.047,-0.047 z m -14.442211,-34.383 c 0.790848,-0.0296 1.472882,-0.05824 1.515631,-0.06365 0.0497,-0.0063 0.06957,-0.556389 0.05511,-1.525553 l -0.02262,-1.515715 -0.40487,-0.0102 c -3.62603,-0.09139 -2.585218,-0.117055 4.841544,-0.119404 4.851966,-0.0015 8.467506,0.0223 8.034536,0.05298 -1.04676,0.07415 -0.96159,-0.07019 -0.96159,1.629526 V 70.1051 l 0.52464,0.04972 c 0.28856,0.02735 0.57711,0.06105 0.64123,0.07489 0.0641,0.01385 -3.43348,0.02294 -7.77246,0.0202 -4.354181,-0.0027 -7.244773,-0.02909 -6.451155,-0.05879 z M 89.771518,45.786054 c 2.038315,-0.03023 3.83084,-0.07838 3.983389,-0.107004 l 0.277361,-0.05203 v -1.439936 c 0,-1.144312 0.0228,-1.462732 0.111036,-1.550972 0.166971,-0.166971 16.788106,-0.166971 16.955076,0 0.0882,0.08823 0.11104,0.406431 0.11104,1.549256 0,1.712674 -0.19488,1.525549 1.66892,1.602511 0.72791,0.03006 -5.00719,0.05431 -12.74469,0.0539 -8.972565,-4.79e-4 -12.725809,-0.02066 -10.362132,-0.05572 z"
         id="path41" /><path
         style="fill:#a12fa8"
         d="m 71.258941,258.44422 c 0,-0.0427 0.03498,-0.0777 0.07772,-0.0777 0.04907,0 0.07773,-0.54132 0.07773,-1.4685 v -1.46849 l -1.301888,-0.0578 c -0.716039,-0.0318 -6.093614,-0.0819 -11.950168,-0.11126 -10.286907,-0.0516 -10.021812,-0.0539 7.811329,-0.0651 16.955118,-0.0107 27.35568,0.0581 27.858444,0.18425 l 0.200161,0.0502 v 1.46834 c 0,0.92708 0.02865,1.46835 0.07773,1.46835 0.04275,0 0.07773,0.035 0.07773,0.0777 0,0.0515 -3.87328,0.0777 -11.464389,0.0777 -7.591109,0 -11.464388,-0.0263 -11.464388,-0.0777 z m -29.07894,-1.53506 c -0.09668,-0.12328 -0.09393,-0.12603 0.02934,-0.0293 0.12947,0.10154 0.170643,0.16537 0.106673,0.16537 -0.01614,0 -0.07735,-0.0612 -0.136018,-0.13602 z m 30.382771,-22.8712 c 3.730881,-0.0325 7.044866,-0.0836 7.364412,-0.11356 l 0.580992,-0.0544 v -1.42604 c 0,-1.74795 0.776131,-1.52388 -5.517079,-1.59277 -3.534208,-0.0387 -1.198328,-0.0493 7.382471,-0.0336 7.394746,0.0136 12.712218,0.053 12.941157,0.0961 0.213743,0.0402 0.344904,0.0777 0.291468,0.0834 -0.07394,0.008 -0.09716,0.36191 -0.09716,1.48123 v 1.47085 l -0.641229,0.044 c -0.352675,0.0242 -7.041854,0.0575 -14.864842,0.074 -10.331258,0.0217 -12.367301,0.0138 -7.440194,-0.0292 z M 61.891851,206.05779 c 0,-5.02296 0.0093,-7.0778 0.02069,-4.56632 0.01138,2.51147 0.01138,6.62117 0,9.13264 -0.01138,2.51148 -0.02069,0.45664 -0.02069,-4.56632 z M 93.462,196.14474 c -5.520333,-0.77015 -11.750085,-2.97739 -17.114069,-6.06364 -1.280877,-0.73697 -4.175348,-2.59714 -4.263728,-2.74015 -0.02408,-0.039 0.558596,0.32837 1.294847,0.8163 2.129393,1.41121 5.217654,3.10593 6.625606,3.63588 l 0.50352,0.18953 v -1.5863 -1.58631 l -0.757815,-0.44511 c -2.201828,-1.29327 -2.959742,-1.75778 -4.022252,-2.46519 -1.202782,-0.8008 -3.479537,-2.46029 -3.564883,-2.59838 -0.02655,-0.043 0.467387,0.30843 1.097643,0.78086 5.909394,4.42965 12.415244,7.24669 20.528239,8.88874 0.742607,0.1503 1.429789,0.30354 1.52707,0.34053 0.09728,0.037 0.189216,0.0548 0.204298,0.0396 0.01508,-0.0152 0.01725,0.65161 0.0048,1.48174 l -0.02262,1.50932 -0.366008,-0.007 c -0.201305,-0.004 -0.954902,-0.0896 -1.674661,-0.19002 z m 3.09632,-8.87913 c -6.158875,-0.42931 -15.998306,-5.04345 -19.858653,-9.31258 -0.106871,-0.11819 0.207914,0.14488 0.699522,0.58459 1.112839,0.99536 3.644054,2.83211 4.780283,3.46877 0.891153,0.49934 1.792293,0.96717 1.86296,0.96717 0.02259,0 0.04108,-0.73156 0.04108,-1.62569 v -1.62568 l -0.291468,-0.22403 c -0.160307,-0.12321 -0.378907,-0.27866 -0.485779,-0.34543 -1.376628,-0.86012 -4.865687,-3.86703 -6.130037,-5.28293 -0.623119,-0.6978 -0.614955,-0.69169 0.194312,0.14549 4.989329,5.16142 11.386,8.5781 18.799158,10.04129 l 1.01042,0.19944 0.03886,1.52303 0.03886,1.52303 -0.194312,-0.007 c -0.106871,-0.004 -0.334216,-0.0171 -0.50521,-0.0291 z M 71.793099,187.1124 c -0.09668,-0.12327 -0.09393,-0.12602 0.02935,-0.0293 0.12947,0.10153 0.170643,0.16536 0.106673,0.16536 -0.01614,0 -0.07735,-0.0612 -0.136018,-0.13602 z m -0.417571,-0.29828 -0.233174,-0.20035 0.252605,0.16717 c 0.138933,0.0919 0.252605,0.18227 0.252605,0.20074 0,0.0582 -0.03291,0.0379 -0.272036,-0.16756 z m -0.4374,-0.32352 c -0.09668,-0.12327 -0.09393,-0.12602 0.02934,-0.0293 0.07481,0.0587 0.136018,0.11988 0.136018,0.13602 0,0.064 -0.06383,0.0228 -0.165363,-0.10668 z m -0.621798,-0.46634 c -0.09668,-0.12328 -0.09393,-0.12603 0.02935,-0.0293 0.07481,0.0587 0.136018,0.11988 0.136018,0.13602 0,0.064 -0.06383,0.0228 -0.165364,-0.10667 z m -0.424956,-0.34977 -0.148064,-0.17488 0.17488,0.14807 c 0.09618,0.0814 0.174881,0.16013 0.174881,0.17488 0,0.0622 -0.06255,0.0163 -0.201697,-0.14807 z m -0.35229,-0.27203 c -0.09668,-0.12328 -0.09393,-0.12603 0.02934,-0.0293 0.07481,0.0587 0.136018,0.11988 0.136018,0.13602 0,0.064 -0.06383,0.0228 -0.165363,-0.10667 z m -0.466348,-0.38863 c -0.09668,-0.12327 -0.09393,-0.12602 0.02934,-0.0293 0.07481,0.0587 0.136018,0.11988 0.136018,0.13602 0,0.064 -0.06383,0.0228 -0.165363,-0.10668 z m -0.388624,-0.31089 c -0.09668,-0.12328 -0.09393,-0.12603 0.02935,-0.0294 0.129469,0.10154 0.170643,0.16536 0.106673,0.16536 -0.01614,0 -0.07735,-0.0612 -0.136019,-0.13601 z m -0.57791,-0.50521 -0.228284,-0.25261 0.252605,0.22828 c 0.235463,0.2128 0.288331,0.27693 0.228284,0.27693 -0.01338,0 -0.127049,-0.11367 -0.252605,-0.2526 z m -0.779742,-0.69953 -0.148064,-0.17488 0.17488,0.14807 c 0.164345,0.13914 0.210264,0.20169 0.148065,0.20169 -0.01475,0 -0.09345,-0.0787 -0.174881,-0.17488 z m 4.508031,-0.46634 -0.148065,-0.17489 0.174881,0.14807 c 0.09618,0.0814 0.17488,0.16013 0.17488,0.17488 0,0.0622 -0.06255,0.0163 -0.201696,-0.14806 z m -5.436999,-0.38863 -0.307242,-0.33033 0.33033,0.30724 c 0.181681,0.16899 0.33033,0.31763 0.33033,0.33033 0,0.0588 -0.06769,-3e-5 -0.353418,-0.30724 z m 5.011015,0.0389 -0.188429,-0.21374 0.213743,0.18843 c 0.199775,0.17612 0.249387,0.23906 0.188429,0.23906 -0.01392,0 -0.110107,-0.0962 -0.213743,-0.21375 z m -0.428988,-0.34976 -0.148064,-0.17488 0.17488,0.14807 c 0.164345,0.13914 0.210264,0.20169 0.148065,0.20169 -0.01475,0 -0.09344,-0.0787 -0.174881,-0.17488 z m -0.502009,-0.42748 -0.267852,-0.29147 0.291467,0.26785 c 0.160307,0.14732 0.291468,0.27848 0.291468,0.29147 0,0.0593 -0.06577,0.003 -0.315083,-0.26785 z m -0.815582,-0.73839 -0.307242,-0.33033 0.33033,0.30724 c 0.181682,0.16899 0.33033,0.31764 0.33033,0.33033 0,0.0588 -0.06769,-3e-5 -0.353418,-0.30724 z m -2.173363,-2.09856 -1.553764,-1.57393 1.573924,1.55377 c 1.4624,1.44367 1.609012,1.59408 1.553765,1.59408 -0.01109,0 -0.719354,-0.70826 -1.573925,-1.57392 z m 8.62451,-1.63222 -0.307241,-0.33033 0.33033,0.30724 c 0.181681,0.16898 0.330329,0.31763 0.330329,0.33033 0,0.0588 -0.06769,-4e-5 -0.353418,-0.30724 z m -0.662885,-0.58294 -0.188429,-0.21374 0.213743,0.18843 c 0.199775,0.17612 0.249386,0.23906 0.188429,0.23906 -0.01392,0 -0.110107,-0.0962 -0.213743,-0.21375 z m -0.658434,-0.73838 -0.307242,-0.33033 0.33033,0.30724 c 0.181682,0.16898 0.33033,0.31763 0.33033,0.33033 0,0.0588 -0.06769,-4e-5 -0.353418,-0.30724 z m -0.738911,-0.81611 -0.267853,-0.29147 0.291468,0.26785 c 0.160307,0.14732 0.291467,0.27848 0.291467,0.29147 0,0.0593 -0.06577,0.003 -0.315082,-0.26785 z m -0.816815,-0.89383 -0.228284,-0.25261 0.252605,0.22829 c 0.235463,0.21279 0.288331,0.27692 0.228284,0.27692 -0.01338,0 -0.127048,-0.11367 -0.252605,-0.2526 z m 2.95477,-1.63222 -0.307242,-0.33033 0.33033,0.30724 c 0.181682,0.16898 0.33033,0.31763 0.33033,0.33033 0,0.0588 -0.06769,-4e-5 -0.353418,-0.30724 z m -0.62303,-0.69952 -0.228284,-0.25261 0.252605,0.22829 c 0.235463,0.21279 0.288331,0.27692 0.228284,0.27692 -0.01338,0 -0.127048,-0.11367 -0.252605,-0.2526 z m -0.743409,-0.97156 c -0.09668,-0.12328 -0.09393,-0.12603 0.02935,-0.0294 0.07481,0.0587 0.136018,0.11988 0.136018,0.13602 0,0.064 -0.06383,0.0228 -0.165364,-0.10667 z m -0.233174,-0.3109 c -0.09668,-0.12328 -0.09393,-0.12603 0.02935,-0.0293 0.07481,0.0587 0.136018,0.11988 0.136018,0.13602 0,0.064 -0.06383,0.0228 -0.165364,-0.10667 z m -6.668271,-19.02959 c 0.0037,-0.0905 0.02215,-0.10896 0.04696,-0.047 0.02245,0.0561 0.01969,0.12314 -0.0061,0.14897 -0.02583,0.0258 -0.0442,-0.0201 -0.04082,-0.10201 z m 0,-2.48719 c 0.0037,-0.0906 0.02215,-0.10896 0.04696,-0.047 0.02245,0.0561 0.01969,0.12314 -0.0061,0.14897 -0.02583,0.0258 -0.0442,-0.0201 -0.04082,-0.10201 z m 5.745489,-17.78296 c 0,-0.0161 0.06121,-0.0773 0.136019,-0.13602 0.123275,-0.0967 0.126024,-0.0939 0.02935,0.0294 -0.101537,0.12947 -0.165364,0.17064 -0.165364,0.10667 z m 0.621798,-0.85497 c 0,-0.0161 0.06121,-0.0774 0.136018,-0.13602 0.123276,-0.0967 0.126025,-0.0939 0.02935,0.0293 -0.101537,0.12947 -0.165363,0.17064 -0.165363,0.10667 z m 0.233174,-0.3109 c 0,-0.0161 0.06121,-0.0773 0.136018,-0.13602 0.123276,-0.0967 0.126025,-0.0939 0.02934,0.0293 -0.101537,0.12947 -0.165363,0.17064 -0.165363,0.10667 z m 0.621797,-0.85497 c 0,-0.0161 0.06121,-0.0773 0.136018,-0.13602 0.123276,-0.0967 0.126025,-0.0939 0.02935,0.0293 -0.101538,0.12947 -0.165364,0.17064 -0.165364,0.10667 z m 0.388623,-0.47587 c 0.100401,-0.10687 0.200035,-0.19431 0.221409,-0.19431 0.02137,0 -0.04328,0.0874 -0.143684,0.19431 -0.1004,0.10688 -0.200034,0.19432 -0.221409,0.19432 -0.02137,0 0.04328,-0.0874 0.143684,-0.19432 z m 0.973863,-1.08814 c 2.00908,-2.27607 4.032596,-4.07887 6.604292,-5.88392 l 0.932696,-0.65464 0.02098,-1.64681 c 0.01154,-0.90574 -0.0061,-1.6468 -0.03919,-1.6468 -0.743693,0 -5.35914,3.17756 -7.441578,5.12325 -0.255513,0.23873 -0.37793,0.33352 -0.272037,0.21063 0.105893,-0.12289 0.57727,-0.56244 1.047504,-0.97678 5.405112,-4.76264 13.18141,-8.2154 19.508892,-8.66217 l 0.388623,-0.0274 -0.03886,1.52378 -0.03886,1.52378 -1.16587,0.23988 c -7.455274,1.53395 -13.884426,4.95106 -18.425522,9.79321 -1.539324,1.64138 -1.832761,1.93562 -1.081065,1.08403 z m -3.538777,-0.99588 c 0,-0.0134 0.113673,-0.12705 0.252606,-0.2526 l 0.252605,-0.22829 -0.228285,0.25261 c -0.212793,0.23546 -0.276926,0.28833 -0.276926,0.22828 z m 1.010421,-1.10269 c 0.145017,-0.14962 0.281156,-0.27203 0.30253,-0.27203 0.02137,0 -0.07979,0.12241 -0.224805,0.27203 -0.145018,0.14962 -0.281156,0.27204 -0.302531,0.27204 -0.02137,0 0.07979,-0.12242 0.224806,-0.27204 z m 0.738384,-0.81611 c 0.166972,-0.17099 0.321073,-0.31089 0.342447,-0.31089 0.02137,0 -0.09775,0.1399 -0.264722,0.31089 -0.166971,0.171 -0.321072,0.3109 -0.342447,0.3109 -0.02137,0 0.09775,-0.1399 0.264722,-0.3109 z m 0.854972,-0.93269 c 0.210529,-0.21374 0.400267,-0.38863 0.421642,-0.38863 0.02137,0 -0.133389,0.17489 -0.343918,0.38863 -0.210528,0.21374 -0.400267,0.38862 -0.421642,0.38862 -0.02137,0 0.133389,-0.17488 0.343918,-0.38862 z m -6.412285,-3.84737 c 0.145017,-0.14962 0.281156,-0.27204 0.30253,-0.27204 0.02137,0 -0.07979,0.12242 -0.224806,0.27204 -0.145017,0.14962 -0.281156,0.27203 -0.30253,0.27203 -0.02137,0 0.07979,-0.12241 0.224806,-0.27203 z m 0.816109,-0.73839 c 0.166971,-0.17099 0.321072,-0.3109 0.342446,-0.3109 0.02138,0 -0.09775,0.13991 -0.264722,0.3109 -0.166971,0.171 -0.321072,0.3109 -0.342446,0.3109 -0.02137,0 0.09775,-0.1399 0.264722,-0.3109 z m 0.660659,-0.58293 c 0.100401,-0.10687 0.200035,-0.19431 0.221409,-0.19431 0.02137,0 -0.04328,0.0874 -0.143684,0.19431 -0.100401,0.10687 -0.200034,0.19431 -0.221409,0.19431 -0.02137,0 0.04328,-0.0874 0.143684,-0.19431 z m 0.466348,-0.38863 c 0.100401,-0.10687 0.200035,-0.19431 0.221409,-0.19431 0.02137,0 -0.04328,0.0874 -0.143684,0.19431 -0.100401,0.10688 -0.200034,0.19432 -0.221409,0.19432 -0.02137,0 0.04328,-0.0874 0.143684,-0.19432 z m 0.427486,-0.34976 c 0.07737,-0.0855 0.158168,-0.15545 0.179542,-0.15545 0.02137,0 -0.02444,0.07 -0.101817,0.15545 -0.07737,0.0855 -0.158168,0.15545 -0.179542,0.15545 -0.02137,0 0.02444,-0.0699 0.101817,-0.15545 z m -4.702342,-0.27203 c 0.1004,-0.10687 0.200034,-0.19432 0.221408,-0.19432 0.02137,0 -0.04328,0.0874 -0.143684,0.19432 -0.1004,0.10687 -0.200034,0.19431 -0.221408,0.19431 -0.02137,0 0.04328,-0.0874 0.143684,-0.19431 z m 5.285277,-0.1904 c 0.330855,-0.29808 1.137523,-0.89905 0.971558,-0.72382 -0.04275,0.0451 -0.357533,0.29736 -0.699522,0.5605 -0.341988,0.26313 -0.464405,0.33663 -0.272036,0.16332 z m -4.508031,-0.50913 c 0.100401,-0.10687 0.200035,-0.19431 0.221409,-0.19431 0.02137,0 -0.04328,0.0874 -0.143684,0.19431 -0.100401,0.10688 -0.200034,0.19432 -0.221409,0.19432 -0.02137,0 0.04328,-0.0874 0.143684,-0.19432 z m 5.596176,-0.301 c 0,-0.20938 3.62336,-2.57572 6.509441,-4.25118 l 0.718953,-0.41737 v -1.57215 -1.57215 l -0.43603,0.15001 c -1.239382,0.42642 -4.258285,2.05643 -6.423171,3.46811 -0.67329,0.43903 -1.224164,0.78064 -1.224164,0.75912 0,-0.17263 3.949426,-2.56648 5.984799,-3.62754 5.10749,-2.6626 13.137124,-5.11066 16.762995,-5.11066 h 0.336432 v 1.47219 c 0,0.84053 -0.03151,1.49166 -0.07345,1.51757 -0.0404,0.025 -0.748665,0.18217 -1.573924,0.34934 -7.920517,1.60438 -15.037518,4.63099 -20.212685,8.59573 -0.203056,0.15556 -0.369193,0.26311 -0.369193,0.23898 z m -4.896654,-0.32079 c 0.100401,-0.10687 0.200035,-0.19431 0.221409,-0.19431 0.02137,0 -0.04328,0.0874 -0.143684,0.19431 -0.100401,0.10687 -0.200034,0.19431 -0.221409,0.19431 -0.02137,0 0.04328,-0.0874 0.143684,-0.19431 z m 0.388624,-0.30138 c 0,-0.0161 0.06121,-0.0773 0.136018,-0.13602 0.123275,-0.0967 0.126025,-0.0939 0.02935,0.0293 -0.101537,0.12947 -0.165363,0.17065 -0.165363,0.10668 z m 0.50521,-0.43701 c 0.07737,-0.0855 0.158168,-0.15545 0.179542,-0.15545 0.02137,0 -0.02444,0.07 -0.101817,0.15545 -0.07737,0.0855 -0.158168,0.15545 -0.179542,0.15545 -0.02138,0 0.02444,-0.07 0.101817,-0.15545 z m 0.388623,-0.3109 c 0.07737,-0.0855 0.158168,-0.15545 0.179542,-0.15545 0.02137,0 -0.02444,0.07 -0.101817,0.15545 -0.07737,0.0855 -0.158168,0.15545 -0.179542,0.15545 -0.02137,0 0.02444,-0.0699 0.101817,-0.15545 z m 0.349761,-0.26252 c 0,-0.0161 0.06121,-0.0773 0.136018,-0.13601 0.123276,-0.0967 0.126025,-0.0939 0.02935,0.0293 -0.101537,0.12947 -0.165364,0.17064 -0.165364,0.10667 z m 0.388624,-0.31089 c 0,-0.0161 0.06121,-0.0773 0.136018,-0.13602 0.123275,-0.0967 0.126025,-0.0939 0.02935,0.0293 -0.101537,0.12947 -0.165363,0.17065 -0.165363,0.10668 z m 0.310898,-0.23318 c 0,-0.0161 0.06121,-0.0773 0.136018,-0.13602 0.123276,-0.0967 0.126025,-0.0939 0.02935,0.0294 -0.101537,0.12947 -0.165364,0.17064 -0.165364,0.10667 z m 0.544073,-0.38862 c 0,-0.0161 0.06121,-0.0773 0.136018,-0.13602 0.123276,-0.0967 0.126025,-0.0939 0.02935,0.0293 -0.101538,0.12947 -0.165364,0.17064 -0.165364,0.10667 z m 0.310899,-0.23318 c 0,-0.0161 0.06121,-0.0773 0.136018,-0.13601 0.123275,-0.0967 0.126025,-0.0939 0.02934,0.0293 -0.101537,0.12947 -0.165363,0.17064 -0.165363,0.10667 z m 0.310898,-0.2321 c 0,-0.0214 0.104929,-0.11358 0.233174,-0.2049 0.128246,-0.0913 0.233174,-0.14854 0.233174,-0.12717 0,0.0214 -0.104928,0.11358 -0.233174,0.2049 -0.128245,0.0913 -0.233174,0.14854 -0.233174,0.12717 z m 3.112843,-43.652871 c 6.293214,-0.06994 5.514595,0.154853 5.514595,-1.592083 v -1.426037 l -0.580992,-0.05444 c -0.319545,-0.02994 -3.633531,-0.08101 -7.364412,-0.113488 -4.923447,-0.04286 -2.894046,-0.05081 7.401332,-0.029 7.801613,0.01652 14.489376,0.04965 14.861695,0.07362 l 0.676944,0.04357 0.02258,1.503783 0.02258,1.503783 -0.310899,0.04984 c -0.170994,0.02741 -5.959539,0.06066 -12.863433,0.07389 -8.661684,0.0166 -10.949224,0.0062 -7.379987,-0.03343 z M 58.162334,45.786561 c 5.856554,-0.02941 11.234129,-0.07947 11.950168,-0.111257 l 1.301888,-0.05779 v -1.468495 c 0,-0.92718 -0.02865,-1.468495 -0.07773,-1.468495 -0.04275,0 -0.07772,-0.03498 -0.07772,-0.07772 0,-0.05147 3.873279,-0.07773 11.464388,-0.07773 7.591109,0 11.464389,0.02626 11.464389,0.07773 0,0.04275 -0.03498,0.07772 -0.07773,0.07772 -0.04907,0 -0.07773,0.541264 -0.07773,1.468343 v 1.468343 l -0.200161,0.05024 c -0.502764,0.126186 -10.903326,0.194974 -27.858444,0.184253 -17.833141,-0.01128 -18.098236,-0.01349 -7.811329,-0.06514 z"
         id="path40" /><path
         style="fill:#fa007a"
         d="m 46.464772,258.44748 c -0.619855,-0.0232 -1.02208,-0.0631 -0.893834,-0.0888 0.216121,-0.0432 0.210437,-0.0476 -0.07773,-0.0594 -2.072226,-0.0853 -4.113709,-1.87243 -4.494264,-3.93437 -0.05235,-0.28363 -0.115141,-0.49574 -0.139538,-0.47134 -0.131589,0.13159 -0.146265,-10.24026 -0.146265,-103.37005 0,-96.382305 0.01147,-103.462805 0.167366,-103.366453 0.03619,0.02237 0.06581,-0.05997 0.06581,-0.182982 0,-1.833984 2.203615,-3.987558 4.289131,-4.19173 0.429751,-0.04207 0.511702,-0.06695 0.335487,-0.101833 -0.128246,-0.02539 0.515708,-0.07075 1.431007,-0.1008 2.289867,-0.07518 3.038161,-0.06949 3.038161,0.02309 0,0.04275 -0.03498,0.07772 -0.07772,0.07772 -0.04909,0 -0.07773,0.544073 -0.07773,1.476769 v 1.476769 l -0.99099,0.0036 c -3.557007,0.01284 -4.281135,0.211804 -4.792646,1.316871 L 43.93872,47.305142 V 150.52351 253.74188 l 0.162301,0.35063 c 0.511511,1.10507 1.235639,1.30404 4.792646,1.31687 l 0.99099,0.004 v 1.47677 c 0,0.93269 0.02864,1.47677 0.07773,1.47677 0.04275,0 0.07772,0.035 0.07772,0.0777 0,0.0809 -1.461529,0.0823 -3.575334,0.003 z m 12.254589,-24.53835 c -0.0285,-0.0285 -0.05182,-10.66693 -0.05182,-23.64096 v -23.58914 l 0.67503,-0.90061 c 0.691728,-0.92288 4.938328,-6.45092 5.843293,-7.60654 l 0.503855,-0.64341 0.258558,0.2506 0.258557,0.25061 v 2.04445 c 0,1.99382 -0.0039,2.04446 -0.155718,2.04446 -0.111511,0 -0.436901,0.38063 -1.146175,1.34075 -0.544751,0.73741 -1.471497,1.98579 -2.059435,2.77418 l -1.068978,1.43342 v 21.55091 c 0,21.22721 0.0023,21.55213 0.15034,21.63138 0.09292,0.0497 0.946327,0.0804 2.234584,0.0804 l 2.084245,-9e-5 -0.0226,1.46491 -0.0226,1.46491 -1.104408,0.0505 c -1.449925,0.0663 -6.310229,0.0658 -6.376732,-7.3e-4 z M 71.094656,171.21055 C 62.75497,160.0795 62.79563,140.24556 71.179721,129.71558 l 0.312394,-0.39235 v 2.76251 2.76251 l -0.653897,1.46421 c -4.04049,9.04746 -4.039697,19.35693 0.0022,28.42428 l 0.653657,1.46637 -0.0204,2.74303 -0.0204,2.74303 z m -6.065957,-48.40104 c -0.573615,-0.72269 -3.521357,-4.55243 -5.450369,-7.08118 l -0.98851,-1.29584 V 90.759281 67.086071 h 2.669212 c 1.468066,0 3.145493,0.02284 3.727615,0.05076 l 1.058404,0.05076 0.0226,1.464957 0.0226,1.464957 -2.098566,0.0011 c -1.154211,6.07e-4 -2.147584,0.03214 -2.207496,0.07007 -0.09285,0.05879 -0.114366,3.245423 -0.145752,21.586839 l -0.03682,21.517866 1.819641,2.44833 c 1.000802,1.34658 1.937978,2.61446 2.082614,2.81752 0.149726,0.2102 0.324242,0.36919 0.405246,0.36919 0.134274,0 0.142274,0.11489 0.142274,2.04321 v 2.04321 l -0.220354,0.26395 -0.220354,0.26394 z"
         id="path39" /></g></g></svg>
